<?xml version="1.0" encoding="UTF-8" ?>
<!DOCTYPE svg PUBLIC "-//W3C//DTD SVG 1.1//EN" "http://www.w3.org/Graphics/SVG/1.1/DTD/svg11.dtd">
<svg width="81pt" height="113pt" viewBox="0 0 81 113" version="1.1" xmlns="http://www.w3.org/2000/svg">
<g id="#000000ff">
</g>
<g id="#edda26ff">
<path fill="#edda26" opacity="1.00" d=" M 58.00 30.58 C 62.62 28.98 64.84 24.27 68.23 21.10 C 69.42 26.41 66.89 31.18 65.23 36.00 C 66.15 40.04 68.68 43.70 68.52 47.98 C 69.00 53.85 67.70 59.61 66.69 65.35 C 65.69 70.91 72.10 76.75 67.71 81.81 C 64.73 86.05 59.16 83.53 55.06 84.80 C 52.09 87.72 55.08 92.95 51.56 95.47 C 47.26 98.42 40.77 98.56 36.53 95.43 C 32.93 92.89 36.12 87.56 32.88 84.83 C 28.78 83.55 23.16 86.22 20.25 81.84 C 17.16 78.62 19.73 74.49 20.49 70.91 C 21.74 63.21 18.58 55.67 19.39 47.95 C 18.97 43.65 21.68 40.06 22.51 36.07 C 20.98 31.56 17.86 26.95 19.30 22.02 C 22.99 24.38 25.12 28.56 29.06 30.58 C 33.42 30.38 37.49 28.10 41.95 28.48 C 47.44 27.92 52.74 29.31 58.00 30.58 M 25.27 61.44 C 25.38 63.28 25.42 65.12 25.67 66.95 C 26.64 69.38 28.79 71.22 31.10 72.35 C 34.49 73.01 37.69 71.53 40.72 70.21 C 40.70 68.83 40.54 67.47 40.24 66.14 C 36.41 62.21 30.62 60.75 25.27 61.44 M 50.19 64.03 C 47.67 65.12 47.06 67.68 47.30 70.20 C 50.95 71.37 55.38 73.90 58.91 71.05 C 62.10 69.01 62.80 65.15 62.73 61.64 C 58.55 59.47 53.99 62.23 50.19 64.03 M 42.44 75.35 C 41.44 77.03 40.51 78.74 39.55 80.44 C 42.47 80.36 45.38 80.37 48.30 80.47 C 47.42 77.72 45.85 74.68 42.44 75.35 Z" />
</g>
</svg>
