<?xml version="1.0" encoding="UTF-8" ?>
<!DOCTYPE svg PUBLIC "-//W3C//DTD SVG 1.1//EN" "http://www.w3.org/Graphics/SVG/1.1/DTD/svg11.dtd">
<svg width="101pt" height="126pt" viewBox="0 0 101 126" version="1.1" xmlns="http://www.w3.org/2000/svg">
<g id="#000000ff">
</g>
<g id="#ebd925ff">
<path fill="#ebd925" opacity="1.00" d=" M 19.72 39.72 C 18.99 36.43 20.24 32.60 23.18 30.80 C 24.08 33.63 24.49 36.97 26.97 38.95 C 29.16 40.78 31.51 42.51 34.18 43.56 C 37.22 43.35 39.96 41.67 43.02 41.48 C 47.33 41.19 51.67 41.19 55.98 41.52 C 59.01 41.75 61.77 43.26 64.79 43.48 C 67.40 42.40 69.61 40.52 71.69 38.63 C 74.12 36.56 74.39 33.16 75.77 30.45 C 79.12 32.94 78.97 37.30 78.44 41.00 C 77.41 43.80 75.52 46.21 74.57 49.05 C 74.35 52.32 74.15 55.76 75.44 58.86 C 77.68 58.31 79.91 57.73 82.19 57.33 C 80.93 61.07 77.40 62.96 74.74 65.53 C 73.16 72.02 71.08 79.19 73.74 85.68 C 74.90 88.86 75.50 93.21 72.18 95.30 C 68.86 98.83 62.49 94.23 59.73 98.52 C 58.85 101.30 58.63 104.22 58.44 107.11 C 53.53 111.41 45.38 111.93 40.84 106.86 C 40.21 103.42 39.82 99.90 38.30 96.70 C 34.88 96.68 31.43 96.97 28.02 96.51 C 24.38 94.54 23.57 90.12 25.03 86.49 C 27.88 80.04 25.89 72.89 24.31 66.39 C 22.07 63.52 18.79 61.58 16.73 58.52 C 19.27 58.37 21.80 58.50 24.34 58.51 C 24.28 55.45 24.68 52.36 24.30 49.32 C 22.93 46.05 20.68 43.18 19.72 39.72 M 52.05 81.09 C 55.22 85.20 62.73 86.39 66.10 82.00 C 68.56 79.83 67.36 76.23 67.54 73.38 C 61.77 73.64 54.63 75.26 52.05 81.09 M 31.20 74.24 C 31.27 76.17 31.24 78.12 31.53 80.04 C 34.00 86.22 43.33 86.12 46.92 81.08 C 44.24 75.15 37.07 73.72 31.20 74.24 M 44.80 92.42 C 47.98 92.55 51.16 92.53 54.34 92.48 C 52.94 90.70 51.47 88.98 49.96 87.29 C 47.94 88.67 46.24 90.44 44.80 92.42 Z" />
</g>
</svg>
