<?xml version="1.0" encoding="UTF-8" ?>
<!DOCTYPE svg PUBLIC "-//W3C//DTD SVG 1.1//EN" "http://www.w3.org/Graphics/SVG/1.1/DTD/svg11.dtd">
<svg width="64pt" height="64pt" viewBox="0 0 64 64" version="1.1" xmlns="http://www.w3.org/2000/svg">
<g id="#ffffffff">
<path fill="#ffffff" opacity="1.00" d=" M 32.01 5.50 C 43.72 5.51 54.74 13.87 57.58 25.27 C 55.25 25.96 52.87 26.46 50.52 27.06 C 48.31 18.87 40.50 12.85 32.00 12.87 C 32.00 10.41 32.00 7.96 32.01 5.50 Z" />
<path fill="#ffffff" opacity="1.00" d=" M 31.99 20.86 C 32.70 21.43 33.38 22.03 34.03 22.66 C 35.99 22.76 37.94 22.94 39.88 23.21 L 40.38 21.42 C 40.75 21.69 41.50 22.24 41.87 22.51 C 42.13 26.67 42.05 30.86 41.92 35.03 C 41.18 39.56 36.70 42.35 32.67 43.70 C 29.60 43.45 26.89 41.32 24.74 39.23 C 20.85 35.08 22.46 29.07 22.19 23.97 C 21.57 21.50 24.55 22.01 25.72 23.09 C 27.90 22.60 31.06 23.58 31.99 20.86 Z" />
</g>
<g id="#38383838">
<path fill="#383838" opacity="0.22" d=" M 24.11 10.05 C 26.07 9.65 28.03 9.26 30.00 8.87 C 29.99 10.25 29.99 11.63 29.99 13.02 C 28.53 13.30 27.07 13.57 25.61 13.83 C 25.13 12.56 24.63 11.30 24.11 10.05 Z" />
<path fill="#383838" opacity="0.22" d=" M 16.69 14.30 C 18.58 13.21 20.46 12.10 22.35 11.01 C 22.80 12.24 23.24 13.47 23.69 14.71 C 22.12 15.72 20.55 16.72 18.99 17.73 C 18.23 16.59 17.46 15.44 16.69 14.30 Z" />
<path fill="#383838" opacity="0.22" d=" M 15.13 16.00 C 16.03 17.06 16.91 18.13 17.80 19.20 C 16.64 20.72 15.47 22.23 14.33 23.76 C 13.51 23.38 11.88 22.61 11.07 22.23 C 12.27 20.05 13.64 17.98 15.13 16.00 Z" />
<path fill="#383838" opacity="0.22" d=" M 10.28 23.59 C 11.43 24.28 12.58 24.96 13.74 25.63 C 13.45 27.43 13.15 29.22 12.86 31.02 C 11.50 31.00 10.14 30.98 8.78 30.97 C 9.24 28.50 9.76 26.04 10.28 23.59 Z" />
<path fill="#383838" opacity="0.22" d=" M 50.52 30.94 C 50.86 28.73 53.17 28.57 54.88 27.95 C 54.92 28.72 55.00 30.24 55.04 31.00 C 53.53 30.99 52.02 30.97 50.52 30.94 Z" />
<path fill="#383838" opacity="0.22" d=" M 8.79 33.02 C 10.16 33.00 11.53 32.99 12.90 32.98 C 13.16 34.90 13.44 36.82 13.70 38.73 C 12.49 39.12 11.28 39.50 10.07 39.88 C 9.64 37.59 9.20 35.31 8.79 33.02 Z" />
<path fill="#383838" opacity="0.22" d=" M 51.15 32.98 C 52.50 32.99 53.84 33.00 55.18 33.00 C 54.78 35.30 54.40 37.60 53.99 39.90 C 52.73 39.39 51.47 38.86 50.22 38.32 C 50.53 36.54 50.85 34.76 51.15 32.98 Z" />
<path fill="#383838" opacity="0.22" d=" M 49.25 40.30 C 50.54 40.78 51.82 41.27 53.10 41.78 C 51.82 43.77 50.53 45.75 49.22 47.72 C 48.29 46.75 47.36 45.79 46.43 44.82 C 47.36 43.31 48.31 41.81 49.25 40.30 Z" />
<path fill="#383838" opacity="0.22" d=" M 10.99 42.04 C 12.08 41.40 13.20 40.78 14.33 40.20 C 15.47 41.76 16.67 43.28 17.82 44.83 C 16.91 45.88 15.99 46.93 15.07 47.98 C 13.70 46.01 12.32 44.04 10.99 42.04 Z" />
<path fill="#383838" opacity="0.22" d=" M 40.20 49.67 C 41.76 48.51 43.30 47.33 44.85 46.15 C 45.86 47.11 46.85 48.08 47.83 49.06 C 45.88 50.41 43.91 51.75 41.91 53.05 C 41.34 51.92 40.77 50.80 40.20 49.67 Z" />
<path fill="#383838" opacity="0.22" d=" M 16.40 49.24 C 17.29 48.27 18.17 47.30 19.05 46.33 C 20.60 47.31 22.14 48.29 23.69 49.28 C 23.24 50.53 22.79 51.77 22.35 53.02 C 20.32 51.83 18.34 50.57 16.40 49.24 Z" />
<path fill="#383838" opacity="0.22" d=" M 24.30 54.04 C 24.65 52.76 24.99 51.48 25.33 50.20 C 27.23 50.51 29.12 50.83 31.01 51.14 C 31.00 52.49 30.99 53.83 30.98 55.17 C 28.75 54.79 26.53 54.43 24.30 54.04 Z" />
<path fill="#383838" opacity="0.22" d=" M 32.97 50.99 C 34.85 50.81 36.74 50.49 38.63 50.62 C 39.03 51.40 39.82 52.96 40.21 53.74 C 37.83 54.27 35.44 54.77 33.04 55.23 C 33.01 53.82 32.99 52.41 32.97 50.99 Z" />
</g>
</svg>
