<?xml version="1.0" encoding="UTF-8" ?>
<!DOCTYPE svg PUBLIC "-//W3C//DTD SVG 1.1//EN" "http://www.w3.org/Graphics/SVG/1.1/DTD/svg11.dtd">
<svg width="64pt" height="64pt" viewBox="0 0 64 64" version="1.1" xmlns="http://www.w3.org/2000/svg">
<g id="#f8fcf8ff">
<path fill="#f8fcf8" opacity="1.00" d=" M 39.84 9.80 C 44.88 4.68 54.15 4.61 59.10 9.89 C 62.16 13.24 61.81 18.19 60.45 22.19 C 59.10 25.03 62.50 27.89 60.56 30.61 C 59.98 33.55 56.60 31.82 54.77 32.93 C 54.68 34.05 54.62 35.17 54.62 36.30 C 53.90 36.95 53.20 37.62 52.52 38.31 C 50.05 38.78 47.55 38.55 45.10 38.07 C 45.23 37.69 45.48 36.94 45.61 36.56 C 45.30 36.49 44.67 36.35 44.36 36.28 C 44.51 34.91 44.26 33.66 43.64 32.54 C 42.18 32.27 40.54 32.89 39.22 32.11 C 38.53 31.06 37.97 29.95 37.54 28.77 C 38.29 27.12 39.99 26.21 41.20 24.94 C 41.66 25.42 42.57 26.37 43.03 26.84 C 44.72 26.69 46.55 26.76 47.96 25.66 C 48.35 23.05 44.90 22.06 42.90 21.42 C 40.52 21.10 38.86 19.36 37.17 17.84 C 37.46 15.02 37.80 11.97 39.84 9.80 M 55.53 21.55 C 53.66 22.28 51.08 23.29 50.90 25.60 C 53.27 27.27 57.58 27.48 58.28 23.93 C 59.68 21.88 57.23 20.48 55.53 21.55 M 46.21 31.55 C 47.23 31.14 48.25 30.70 49.27 30.26 C 50.42 30.67 51.58 31.07 52.74 31.45 C 51.67 30.19 50.53 28.99 49.36 27.82 C 48.19 28.96 47.11 30.19 46.21 31.55 Z" />
<path fill="#f8fcf8" opacity="1.00" d=" M 14.35 9.64 C 15.66 9.68 16.97 9.72 18.27 9.77 C 19.83 11.27 22.92 12.47 24.33 10.20 C 25.76 10.83 27.77 10.76 28.75 12.06 C 28.97 14.73 28.78 17.40 28.80 20.07 C 30.72 20.07 32.63 20.07 34.55 20.07 C 34.57 19.41 34.61 18.08 34.62 17.41 C 36.83 19.44 39.10 21.39 41.44 23.27 C 39.02 25.02 36.75 26.95 34.58 29.00 C 34.58 28.32 34.59 26.96 34.59 26.28 C 32.67 26.28 30.75 26.29 28.83 26.29 C 28.17 27.93 27.51 29.59 26.92 31.26 C 26.40 30.94 25.87 30.62 25.35 30.30 C 28.81 26.67 27.18 21.45 27.37 17.00 C 27.14 15.23 28.09 12.67 25.90 11.83 C 23.45 13.74 19.37 13.23 17.25 11.04 C 16.84 11.03 16.02 11.01 15.61 11.00 C 13.95 13.12 11.03 12.63 8.68 13.13 C 8.03 11.18 4.75 11.91 5.32 13.97 C 5.47 18.85 4.67 23.90 6.13 28.65 C 8.09 32.63 12.36 34.48 16.30 35.91 C 19.18 34.89 22.21 33.91 24.22 31.43 C 24.60 31.92 24.98 32.41 25.36 32.90 C 21.79 34.64 17.79 38.46 13.61 36.26 C 9.15 34.62 4.84 31.04 4.04 26.13 C 3.86 21.34 4.04 16.53 3.96 11.74 C 5.37 11.16 6.80 10.64 8.24 10.13 C 9.35 12.10 11.48 11.23 13.28 11.12 C 13.55 10.75 14.08 10.01 14.35 9.64 Z" />
<path fill="#f8fcf8" opacity="1.00" d=" M 6.54 26.55 C 13.10 26.59 19.66 26.56 26.22 26.59 C 24.24 30.46 20.53 33.58 16.16 34.16 C 12.05 33.09 8.35 30.47 6.54 26.55 Z" />
<path fill="#f8fcf8" opacity="1.00" d=" M 28.87 31.84 C 30.76 31.28 32.81 30.81 34.66 31.78 C 34.19 32.30 33.23 33.36 32.75 33.88 C 33.78 34.24 35.83 34.96 36.86 35.32 C 36.86 34.72 36.85 33.51 36.85 32.90 C 37.53 33.31 38.89 34.13 39.56 34.54 C 39.02 34.80 37.94 35.34 37.40 35.61 C 41.09 38.60 42.94 44.16 40.30 48.41 C 37.88 53.01 31.44 54.82 27.02 52.04 C 22.06 49.52 20.58 42.32 24.11 38.01 C 25.75 35.63 28.53 34.63 31.18 33.85 C 30.60 33.35 29.45 32.34 28.87 31.84 M 31.78 35.15 C 31.82 38.01 31.56 40.89 31.90 43.74 C 33.78 45.85 35.96 47.68 38.02 49.62 C 39.21 47.54 40.51 45.35 40.02 42.84 C 39.81 38.50 35.71 35.81 31.78 35.15 Z" />
</g>
</svg>
