<?xml version="1.0" encoding="UTF-8" ?>
<!DOCTYPE svg PUBLIC "-//W3C//DTD SVG 1.1//EN" "http://www.w3.org/Graphics/SVG/1.1/DTD/svg11.dtd">
<svg width="64pt" height="64pt" viewBox="0 0 64 64" version="1.1" xmlns="http://www.w3.org/2000/svg">
<g id="#ffffffff">
<path fill="#ffffff" opacity="1.00" d=" M 32.00 5.51 C 43.10 5.52 53.57 12.97 57.08 23.52 C 54.74 24.23 52.41 24.98 50.08 25.70 C 47.48 18.15 39.97 12.87 32.00 12.88 C 32.00 10.43 32.00 7.97 32.00 5.51 Z" />
<path fill="#ffffff" opacity="1.00" d=" M 31.47 19.91 C 32.74 19.83 33.75 20.26 34.52 21.20 C 36.73 21.41 38.94 21.61 41.15 21.91 C 41.15 21.48 41.16 20.61 41.17 20.18 C 41.86 20.36 43.23 20.73 43.92 20.91 C 44.08 25.66 44.03 30.43 43.95 35.19 C 43.20 40.99 37.80 45.13 32.40 46.40 C 28.43 45.48 24.77 43.07 22.44 39.70 C 18.85 34.10 20.94 27.16 20.39 20.93 C 21.09 20.75 22.48 20.40 23.18 20.22 C 23.28 20.66 23.48 21.53 23.59 21.96 C 26.14 21.07 29.72 22.35 31.47 19.91 M 29.98 23.00 C 30.12 23.66 30.39 25.00 30.52 25.67 C 29.97 25.92 28.86 26.41 28.31 26.66 C 27.60 30.14 28.90 33.54 29.65 36.89 C 29.95 39.59 30.04 42.31 30.29 45.01 C 31.23 44.97 33.12 44.90 34.06 44.86 C 34.26 40.39 34.27 35.86 35.70 31.56 C 35.98 29.40 37.15 25.55 33.65 25.86 C 33.78 25.06 34.04 23.47 34.17 22.67 C 32.74 21.92 31.21 21.74 29.98 23.00 Z" />
</g>
<g id="#38383838">
<path fill="#383838" opacity="0.22" d=" M 23.96 10.35 C 25.95 9.78 27.96 9.27 29.99 8.85 C 29.99 10.24 29.99 11.63 29.99 13.02 C 28.51 13.28 27.04 13.55 25.56 13.82 C 25.16 12.95 24.36 11.22 23.96 10.35 Z" />
<path fill="#383838" opacity="0.22" d=" M 16.47 14.88 C 18.26 13.36 20.22 12.06 22.31 10.99 C 22.78 12.18 23.26 13.36 23.74 14.55 C 22.23 15.58 20.72 16.60 19.20 17.62 C 18.29 16.71 17.38 15.79 16.47 14.88 Z" />
<path fill="#383838" opacity="0.22" d=" M 11.06 22.08 C 12.24 19.91 13.65 17.89 15.35 16.10 C 16.15 17.15 16.95 18.19 17.75 19.23 C 16.66 20.79 15.51 22.30 14.31 23.77 C 13.23 23.21 12.15 22.64 11.06 22.08 Z" />
<path fill="#383838" opacity="0.22" d=" M 8.83 30.98 C 9.18 28.41 9.72 25.87 10.43 23.38 C 11.53 24.16 12.62 24.95 13.71 25.73 C 13.43 27.49 13.15 29.25 12.87 31.01 C 11.52 31.00 10.17 30.99 8.83 30.98 Z" />
<path fill="#383838" opacity="0.22" d=" M 51.02 27.33 C 52.25 27.20 53.48 27.06 54.71 26.92 C 54.83 28.28 54.95 29.63 55.07 30.99 C 53.68 30.99 52.30 31.00 50.91 31.00 C 50.95 29.78 50.98 28.56 51.02 27.33 Z" />
<path fill="#383838" opacity="0.22" d=" M 8.84 33.03 C 10.19 33.01 11.55 33.00 12.91 32.99 C 13.17 34.91 13.43 36.82 13.70 38.74 C 12.50 39.12 11.31 39.50 10.11 39.88 C 9.60 37.62 9.18 35.33 8.84 33.03 Z" />
<path fill="#383838" opacity="0.22" d=" M 51.13 32.98 C 52.48 33.00 53.82 33.01 55.17 33.03 C 54.82 35.36 54.38 37.67 53.84 39.97 C 52.65 39.44 51.46 38.91 50.27 38.38 C 50.56 36.58 50.85 34.78 51.13 32.98 Z" />
<path fill="#383838" opacity="0.22" d=" M 49.30 40.31 C 50.51 40.73 51.73 41.15 52.95 41.57 C 52.01 43.75 50.68 45.73 49.11 47.50 C 48.21 46.61 47.30 45.71 46.40 44.82 C 47.37 43.32 48.34 41.82 49.30 40.31 Z" />
<path fill="#383838" opacity="0.22" d=" M 11.04 41.97 C 12.14 41.39 13.24 40.80 14.34 40.22 C 15.50 41.72 16.61 43.25 17.67 44.82 C 16.90 45.85 16.13 46.88 15.36 47.91 C 13.66 46.12 12.23 44.12 11.04 41.97 Z" />
<path fill="#383838" opacity="0.22" d=" M 40.31 49.32 C 41.85 48.29 43.39 47.26 44.92 46.21 C 45.87 47.13 46.81 48.04 47.75 48.96 C 45.90 50.55 43.88 51.94 41.65 52.93 C 41.20 51.73 40.76 50.53 40.31 49.32 Z" />
<path fill="#383838" opacity="0.22" d=" M 16.71 49.17 C 17.45 48.20 18.18 47.23 18.92 46.25 C 20.49 47.25 22.07 48.24 23.65 49.21 C 23.25 50.47 22.84 51.73 22.43 52.99 C 20.33 52.03 18.35 50.81 16.71 49.17 Z" />
<path fill="#383838" opacity="0.22" d=" M 24.06 53.60 C 24.42 52.75 25.13 51.06 25.49 50.21 C 27.33 50.51 29.17 50.81 31.01 51.11 C 31.00 52.46 30.99 53.81 30.98 55.17 C 28.62 54.90 26.29 54.41 24.06 53.60 Z" />
<path fill="#383838" opacity="0.22" d=" M 32.99 51.06 C 34.88 50.98 36.95 50.00 38.76 50.72 C 39.09 51.45 39.76 52.90 40.09 53.63 C 37.79 54.38 35.42 54.87 33.02 55.17 C 33.01 53.80 33.00 52.43 32.99 51.06 Z" />
</g>
</svg>
