<?xml version="1.0" encoding="UTF-8" ?>
<!DOCTYPE svg PUBLIC "-//W3C//DTD SVG 1.1//EN" "http://www.w3.org/Graphics/SVG/1.1/DTD/svg11.dtd">
<svg width="64pt" height="64pt" viewBox="0 0 64 64" version="1.1" xmlns="http://www.w3.org/2000/svg">
<g id="#fefefefe">
<path fill="#fefefe" opacity="1.00" d=" M 33.06 13.96 C 33.88 10.79 37.54 10.64 39.96 12.05 C 41.65 13.50 40.10 15.84 40.05 17.68 C 42.92 18.52 45.78 19.40 48.56 20.52 C 48.65 21.04 48.83 22.10 48.92 22.62 C 45.82 24.37 42.12 25.18 39.37 27.44 C 37.91 31.05 37.45 35.16 37.69 39.06 C 41.15 40.68 44.87 41.81 48.07 43.94 C 50.24 45.10 48.81 47.74 47.85 49.24 C 43.71 49.09 39.57 48.61 35.48 47.93 C 36.14 49.98 36.84 52.03 36.99 54.19 C 33.15 56.10 29.72 52.81 26.96 50.53 C 25.30 52.61 23.03 51.03 21.16 50.21 C 21.13 49.41 21.08 47.81 21.05 47.01 C 23.36 43.99 23.06 39.95 24.36 36.51 C 24.56 32.65 24.35 28.66 25.82 24.99 C 24.83 21.52 23.58 18.14 22.43 14.72 C 21.59 13.35 23.24 12.59 24.02 11.80 C 27.00 12.64 30.05 13.19 33.06 13.96 M 28.25 15.75 C 29.62 18.03 29.54 22.33 33.13 22.10 C 32.97 20.15 32.87 18.19 32.83 16.23 C 31.30 16.07 29.78 15.92 28.25 15.75 M 39.67 19.80 C 38.94 20.24 37.47 21.13 36.74 21.58 C 37.78 24.26 41.29 21.96 43.39 22.12 C 42.17 21.32 40.92 20.56 39.67 19.80 M 30.16 26.05 C 27.80 28.70 30.81 32.17 32.85 34.01 C 35.87 33.32 38.46 28.81 35.93 26.10 C 34.00 26.25 32.08 26.11 30.16 26.05 Z" />
</g>
</svg>
