<?xml version="1.0" encoding="UTF-8" ?>
<!DOCTYPE svg PUBLIC "-//W3C//DTD SVG 1.1//EN" "http://www.w3.org/Graphics/SVG/1.1/DTD/svg11.dtd">
<svg width="64pt" height="64pt" viewBox="0 0 64 64" version="1.1" xmlns="http://www.w3.org/2000/svg">
<g id="#ffffffff">
<path fill="#ffffff" opacity="1.00" d=" M 32.01 5.51 C 36.88 5.65 41.58 7.09 45.91 9.28 C 44.55 11.48 43.32 13.82 41.47 15.66 C 38.75 13.58 35.30 13.13 32.00 12.88 C 32.00 10.42 32.00 7.97 32.01 5.51 Z" />
<path fill="#ffffff" opacity="1.00" d=" M 31.83 20.87 C 32.61 21.37 33.35 21.93 34.02 22.57 C 35.97 22.79 37.93 22.97 39.88 23.21 L 40.27 21.52 C 40.67 21.74 41.47 22.19 41.86 22.41 C 42.13 26.61 42.05 30.85 41.92 35.05 C 41.10 39.70 36.40 42.78 32.09 43.73 C 27.30 42.36 22.35 38.50 22.19 33.12 C 22.18 29.56 22.00 25.99 22.33 22.44 C 23.56 21.77 24.66 22.31 25.62 23.12 C 27.71 22.49 31.20 23.77 31.83 20.87 M 25.40 24.94 C 25.70 25.48 26.31 26.56 26.61 27.10 C 24.76 29.48 23.51 32.82 25.32 35.61 C 27.45 40.62 35.02 41.61 38.32 37.26 C 42.27 33.01 39.21 24.87 33.20 24.85 C 33.25 25.43 33.34 26.58 33.38 27.16 C 35.14 28.21 37.36 29.50 37.37 31.84 C 37.94 35.13 34.17 38.35 31.01 37.17 C 27.76 36.32 26.10 31.98 28.37 29.35 L 29.44 31.34 C 30.59 29.52 31.57 27.59 32.26 25.55 C 29.97 25.42 27.68 25.19 25.40 24.94 Z" />
</g>
<g id="#38383838">
<path fill="#383838" opacity="0.22" d=" M 24.32 10.01 C 26.21 9.65 28.11 9.28 30.00 8.91 C 30.00 10.28 29.99 11.65 29.99 13.03 C 28.44 13.30 26.89 13.56 25.35 13.83 C 25.00 12.55 24.66 11.28 24.32 10.01 Z" />
<path fill="#383838" opacity="0.22" d=" M 16.40 14.86 C 18.27 13.40 20.25 12.09 22.34 10.96 C 22.79 12.21 23.24 13.46 23.69 14.71 C 22.19 15.67 20.70 16.62 19.20 17.58 C 18.27 16.68 17.33 15.77 16.40 14.86 Z" />
<path fill="#383838" opacity="0.22" d=" M 45.42 14.26 C 47.89 13.31 46.68 17.50 44.87 17.33 C 43.36 16.91 44.50 14.75 45.42 14.26 Z" />
<path fill="#383838" opacity="0.22" d=" M 15.17 16.05 C 16.05 17.09 16.92 18.14 17.79 19.19 C 16.67 20.72 15.53 22.24 14.37 23.75 C 13.56 23.38 11.95 22.64 11.14 22.28 C 12.19 20.02 13.57 17.94 15.17 16.05 Z" />
<path fill="#383838" opacity="0.22" d=" M 46.16 18.90 C 47.31 18.17 48.46 17.44 49.63 16.73 C 50.78 18.55 51.92 20.37 53.05 22.21 C 51.86 22.73 50.66 23.26 49.47 23.78 C 48.37 22.15 47.26 20.52 46.16 18.90 Z" />
<path fill="#383838" opacity="0.22" d=" M 10.32 23.62 C 11.45 24.29 12.59 24.96 13.73 25.62 C 13.44 27.42 13.15 29.22 12.87 31.01 C 11.51 31.00 10.16 30.99 8.81 30.97 C 9.20 28.50 9.72 26.05 10.32 23.62 Z" />
<path fill="#383838" opacity="0.22" d=" M 50.29 25.60 C 51.47 25.07 52.65 24.54 53.84 24.02 C 54.36 26.32 54.81 28.64 55.19 30.97 C 53.83 30.99 52.48 31.00 51.12 31.02 C 50.85 29.21 50.57 27.40 50.29 25.60 Z" />
<path fill="#383838" opacity="0.22" d=" M 8.82 33.03 C 10.18 33.01 11.54 33.00 12.91 32.99 C 13.17 34.90 13.43 36.82 13.70 38.73 C 12.50 39.12 11.30 39.50 10.09 39.88 C 9.62 37.61 9.19 35.32 8.82 33.03 Z" />
<path fill="#383838" opacity="0.22" d=" M 51.09 32.99 C 52.46 33.00 53.82 33.01 55.18 33.02 C 54.81 35.35 54.36 37.67 53.84 39.98 C 52.65 39.45 51.46 38.92 50.27 38.39 C 50.54 36.59 50.82 34.79 51.09 32.99 Z" />
<path fill="#383838" opacity="0.22" d=" M 49.26 40.33 C 50.49 40.72 51.72 41.13 52.95 41.54 C 52.03 43.39 51.23 45.40 49.65 46.80 C 48.33 47.25 47.40 45.48 46.28 45.02 C 47.28 43.46 48.27 41.89 49.26 40.33 Z" />
<path fill="#383838" opacity="0.22" d=" M 11.15 41.73 C 11.93 41.35 13.51 40.61 14.30 40.23 C 15.50 41.74 16.67 43.27 17.79 44.84 C 16.90 45.87 16.01 46.91 15.13 47.95 C 13.56 46.04 12.18 43.97 11.15 41.73 Z" />
<path fill="#383838" opacity="0.22" d=" M 40.26 49.49 C 41.80 48.38 43.36 47.28 44.91 46.17 C 45.86 47.10 46.81 48.04 47.76 48.99 C 45.89 50.55 43.84 51.90 41.64 52.95 C 41.18 51.79 40.72 50.64 40.26 49.49 Z" />
<path fill="#383838" opacity="0.22" d=" M 16.52 49.20 C 17.34 48.23 18.15 47.25 18.97 46.28 C 20.54 47.28 22.12 48.29 23.70 49.29 C 23.25 50.53 22.80 51.77 22.34 53.00 C 20.28 51.94 18.34 50.65 16.52 49.20 Z" />
<path fill="#383838" opacity="0.22" d=" M 23.97 53.41 C 24.39 52.63 25.24 51.05 25.66 50.27 C 27.44 50.54 29.23 50.82 31.01 51.10 C 31.00 52.45 30.99 53.81 30.98 55.17 C 28.56 54.93 26.19 54.41 23.97 53.41 Z" />
<path fill="#383838" opacity="0.22" d=" M 32.98 51.05 C 34.89 50.81 36.80 50.45 38.73 50.56 C 39.07 51.33 39.77 52.86 40.12 53.63 C 37.80 54.34 35.43 54.87 33.02 55.19 C 33.01 53.81 32.99 52.43 32.98 51.05 Z" />
</g>
</svg>
