<?xml version="1.0" encoding="UTF-8" ?>
<!DOCTYPE svg PUBLIC "-//W3C//DTD SVG 1.1//EN" "http://www.w3.org/Graphics/SVG/1.1/DTD/svg11.dtd">
<svg width="64pt" height="64pt" viewBox="0 0 64 64" version="1.1" xmlns="http://www.w3.org/2000/svg">
<g id="#f8f8f8f8">
<path fill="#f8f8f8" opacity="0.97" d=" M 30.66 16.59 C 31.39 16.55 32.85 16.47 33.58 16.43 C 33.72 16.97 33.99 18.06 34.13 18.60 C 37.21 19.13 40.33 19.27 43.42 19.60 C 43.44 19.07 43.47 18.02 43.49 17.49 C 44.53 17.72 45.56 17.95 46.60 18.18 C 46.52 24.14 46.61 30.10 46.56 36.05 C 46.79 40.95 42.67 44.51 39.15 47.27 C 36.80 48.37 34.50 49.59 32.04 50.43 C 25.30 48.00 18.47 43.25 17.24 35.68 C 16.83 29.94 17.16 24.17 17.09 18.42 C 18.38 18.11 19.67 17.81 20.97 17.50 C 21.00 18.03 21.06 19.09 21.10 19.61 C 24.32 19.33 27.54 18.86 30.77 18.64 C 30.74 18.12 30.69 17.10 30.66 16.59 M 23.12 22.00 C 23.51 22.53 24.30 23.58 24.69 24.11 C 21.21 27.75 18.71 33.16 20.93 38.11 C 23.17 44.99 32.20 48.16 38.29 44.31 C 43.93 41.43 45.26 34.23 43.33 28.63 C 40.82 24.80 36.01 20.54 31.19 22.81 C 28.51 22.47 25.82 22.19 23.12 22.00 Z" />
<path fill="#f8f8f8" opacity="0.97" d=" M 31.32 23.19 C 31.67 23.44 32.37 23.94 32.73 24.20 C 36.36 24.89 39.87 27.05 41.14 30.68 C 43.72 36.55 38.32 43.83 32.02 43.45 C 25.87 43.55 20.89 36.51 23.34 30.77 C 23.90 28.78 26.36 24.95 27.60 28.88 C 29.02 27.11 30.15 25.14 31.32 23.19 M 27.81 28.83 C 27.57 30.68 27.37 32.55 27.23 34.42 C 27.84 34.34 29.07 34.17 29.68 34.09 C 31.00 35.55 33.05 36.56 34.19 34.33 C 34.89 34.43 36.30 34.64 37.01 34.74 C 37.26 31.91 36.90 29.01 34.24 27.47 C 32.02 27.51 29.85 27.94 27.81 28.83 M 27.03 37.90 C 29.88 38.48 32.56 43.22 34.90 39.09 C 36.85 38.59 37.27 36.98 37.09 35.12 C 36.30 35.30 34.70 35.67 33.91 35.85 C 33.33 36.71 32.74 37.57 32.13 38.41 C 30.94 37.08 29.73 35.76 28.65 34.34 C 28.07 35.51 27.52 36.69 27.03 37.90 Z" />
</g>
</svg>
