<?xml version="1.0" encoding="UTF-8" ?>
<!DOCTYPE svg PUBLIC "-//W3C//DTD SVG 1.1//EN" "http://www.w3.org/Graphics/SVG/1.1/DTD/svg11.dtd">
<svg width="64pt" height="64pt" viewBox="0 0 64 64" version="1.1" xmlns="http://www.w3.org/2000/svg">
<g id="#fefefefe">
<path fill="#fefefe" opacity="1.00" d=" M 28.91 3.90 C 32.37 2.90 36.02 2.38 39.19 0.57 C 40.16 2.37 40.43 4.41 40.70 6.41 C 37.08 7.58 33.46 8.77 29.85 10.00 C 30.33 11.46 30.84 12.92 31.41 14.35 C 28.91 15.31 26.27 15.64 23.61 15.76 C 21.66 16.55 22.34 18.78 22.11 20.36 C 22.29 23.89 20.14 27.12 20.81 30.65 C 18.72 30.95 16.62 31.25 14.53 31.55 C 14.75 29.68 13.78 28.69 11.98 28.51 C 11.93 23.91 14.78 19.69 13.93 15.07 C 13.48 13.69 12.05 13.40 10.79 13.37 C 10.74 11.98 10.47 10.61 10.02 9.29 C 10.35 9.01 10.99 8.44 11.32 8.16 C 17.35 7.64 23.02 5.17 28.91 3.90 M 24.56 11.78 C 25.17 12.61 26.38 14.26 26.98 15.08 C 27.83 14.70 29.51 13.95 30.35 13.57 C 29.86 12.41 29.39 11.23 28.69 10.18 C 27.21 10.39 25.90 11.18 24.56 11.78 M 23.21 13.87 C 22.40 15.30 25.82 15.86 25.55 14.26 C 24.96 14.16 23.80 13.97 23.21 13.87 Z" />
<path fill="#fefefe" opacity="1.00" d=" M 41.06 14.33 C 46.70 12.52 52.77 11.90 58.07 9.17 C 59.40 10.89 59.45 13.03 59.70 15.09 C 56.11 16.30 52.43 17.26 48.93 18.70 C 49.38 20.09 49.88 21.47 50.41 22.84 C 47.64 23.96 44.72 24.84 41.70 24.80 C 41.54 29.59 39.69 34.26 39.97 38.99 C 37.81 39.44 35.64 39.85 33.46 40.23 C 33.46 39.62 33.44 38.39 33.43 37.77 C 32.80 37.61 31.53 37.30 30.90 37.14 C 31.15 32.70 33.54 28.56 32.99 24.07 C 33.24 22.25 30.96 22.22 29.82 21.70 C 29.59 20.08 29.34 18.44 29.58 16.80 C 33.56 16.93 37.23 15.13 41.06 14.33 M 43.85 21.00 C 45.24 21.87 47.04 24.41 48.73 22.54 C 49.97 21.58 48.14 19.98 48.10 18.79 C 46.53 19.13 44.43 19.14 43.85 21.00 M 44.59 24.09 C 45.75 23.04 43.66 21.97 42.72 22.13 C 40.85 22.81 43.55 24.58 44.59 24.09 Z" />
<path fill="#fefefe" opacity="1.00" d=" M 19.57 44.00 C 19.98 44.00 20.78 44.00 21.18 44.00 C 21.16 44.42 21.12 45.26 21.10 45.68 C 23.96 46.07 26.19 47.93 27.35 50.51 C 27.59 51.87 30.15 51.90 29.80 53.24 C 27.20 54.94 26.40 58.24 23.80 59.98 C 23.18 60.07 21.94 60.26 21.32 60.35 C 21.26 61.01 21.13 62.33 21.06 62.99 L 19.67 63.01 C 19.64 62.37 19.57 61.10 19.54 60.46 C 15.94 60.16 14.03 57.22 12.72 54.22 C 12.29 54.10 11.43 53.86 11.00 53.73 C 11.00 53.37 11.00 52.63 11.00 52.27 C 13.46 52.27 13.87 49.63 15.06 48.05 C 16.03 46.51 18.04 46.27 19.62 45.69 C 19.61 45.27 19.59 44.42 19.57 44.00 M 14.02 51.66 C 17.52 51.67 16.66 54.39 13.92 54.26 C 15.03 56.28 16.29 59.05 18.99 59.04 C 19.63 58.20 20.30 57.38 21.01 56.58 C 21.07 57.29 21.17 58.72 21.22 59.43 C 24.12 58.92 25.95 56.75 26.87 54.07 L 24.98 54.00 C 24.98 53.51 24.98 52.51 24.97 52.02 L 26.76 51.86 C 25.81 49.30 23.91 47.34 21.21 46.70 C 21.19 47.27 21.14 48.42 21.12 49.00 L 19.65 49.00 C 19.62 48.42 19.55 47.24 19.51 46.65 C 17.04 47.52 15.14 49.29 14.02 51.66 Z" />
<path fill="#fefefe" opacity="1.00" d=" M 37.19 43.57 C 39.04 44.61 39.87 49.67 36.60 48.71 C 36.75 46.99 36.95 45.28 37.19 43.57 Z" />
<path fill="#fefefe" opacity="1.00" d=" M 43.17 43.58 C 45.27 44.80 44.59 47.47 44.39 49.44 C 41.53 48.56 43.24 45.54 43.17 43.58 Z" />
<path fill="#fefefe" opacity="1.00" d=" M 49.14 43.58 C 51.27 44.83 50.56 47.39 50.41 49.41 C 47.48 48.62 49.25 45.53 49.14 43.58 Z" />
<path fill="#fefefe" opacity="1.00" d=" M 36.86 49.08 C 39.21 49.29 39.76 51.90 39.79 53.85 C 39.85 56.23 39.78 58.61 39.72 60.99 C 38.37 61.00 37.01 61.00 35.66 61.01 C 35.53 57.00 35.10 52.83 36.86 49.08 Z" />
<path fill="#fefefe" opacity="1.00" d=" M 42.87 49.08 C 47.60 50.80 45.38 57.13 45.69 61.00 C 44.36 61.00 43.02 61.00 41.69 61.01 C 41.55 57.00 41.06 52.82 42.87 49.08 Z" />
<path fill="#fefefe" opacity="1.00" d=" M 48.86 49.08 C 53.60 50.76 51.27 57.13 51.72 60.99 C 50.38 61.00 49.03 61.00 47.69 61.01 C 47.55 57.00 47.09 52.83 48.86 49.08 Z" />
</g>
</svg>
