<?xml version="1.0" encoding="UTF-8" ?>
<!DOCTYPE svg PUBLIC "-//W3C//DTD SVG 1.1//EN" "http://www.w3.org/Graphics/SVG/1.1/DTD/svg11.dtd">
<svg width="64pt" height="64pt" viewBox="0 0 64 64" version="1.1" xmlns="http://www.w3.org/2000/svg">
<g id="#fefefefe">
<path fill="#fefefe" opacity="1.00" d=" M 32.01 5.64 C 38.65 5.59 45.04 8.27 50.08 12.50 C 48.65 14.52 46.88 16.25 45.18 18.04 C 41.52 14.87 36.87 12.95 32.00 12.88 C 32.00 10.47 32.00 8.05 32.01 5.64 Z" />
<path fill="#fefefe" opacity="1.00" d=" M 19.01 22.02 C 23.08 19.76 28.24 20.50 31.99 23.08 C 35.75 20.52 40.89 19.71 44.94 22.11 C 48.18 24.69 49.09 29.56 47.18 33.22 C 44.09 39.62 38.01 43.86 32.16 47.56 C 26.12 43.99 20.12 39.57 16.86 33.19 C 14.92 29.52 15.78 24.66 19.01 22.02 M 27.20 25.43 C 25.96 26.79 24.37 27.59 22.53 27.12 C 21.42 28.03 20.31 28.92 19.21 29.83 C 19.45 32.17 20.30 34.62 22.47 35.86 C 23.81 36.00 25.15 36.12 26.49 36.23 C 25.81 36.56 24.43 37.21 23.75 37.54 C 24.33 40.35 27.68 39.96 29.86 40.25 C 33.26 40.16 37.01 40.57 40.10 38.91 C 42.49 37.42 38.56 36.81 37.57 36.05 C 38.87 36.00 40.17 35.96 41.47 35.95 C 43.64 34.48 45.09 32.06 44.56 29.38 C 42.87 26.35 38.83 27.86 36.73 25.46 C 33.55 25.86 30.37 25.94 27.20 25.43 Z" />
<path fill="#fefefe" opacity="1.00" d=" M 26.91 28.41 C 27.46 28.07 28.56 27.38 29.12 27.04 C 29.82 27.73 30.52 28.41 31.22 29.10 C 30.79 30.28 30.82 32.23 29.06 32.13 C 27.41 31.80 27.18 29.77 26.91 28.41 Z" />
<path fill="#fefefe" opacity="1.00" d=" M 35.11 32.10 C 31.93 31.81 32.97 27.98 35.02 26.76 C 37.48 27.95 37.67 30.90 35.11 32.10 Z" />
<path fill="#fefefe" opacity="1.00" d=" M 21.56 30.66 C 21.97 30.23 22.79 29.38 23.20 28.95 C 24.84 29.75 26.84 32.23 24.82 33.68 C 22.86 35.25 21.75 32.13 21.56 30.66 Z" />
<path fill="#fefefe" opacity="1.00" d=" M 39.58 29.51 C 42.89 27.50 43.26 34.12 40.13 33.85 C 37.82 33.73 38.30 30.71 39.58 29.51 Z" />
<path fill="#fefefe" opacity="1.00" d=" M 26.95 34.59 C 28.66 34.20 30.39 33.85 32.10 33.45 C 33.78 33.81 35.48 34.07 37.18 34.36 C 35.77 39.04 28.70 39.15 26.95 34.59 Z" />
</g>
<g id="#38383838">
<path fill="#383838" opacity="0.22" d=" M 24.09 10.13 C 26.06 9.71 28.02 9.30 29.99 8.88 C 29.99 10.27 29.99 11.65 29.99 13.03 C 28.48 13.29 26.97 13.54 25.45 13.80 C 24.99 12.58 24.54 11.35 24.09 10.13 Z" />
<path fill="#383838" opacity="0.22" d=" M 16.52 14.84 C 18.30 13.33 20.26 12.05 22.36 11.02 C 22.80 12.26 23.24 13.50 23.68 14.75 C 22.16 15.69 20.65 16.64 19.14 17.60 C 18.27 16.68 17.39 15.76 16.52 14.84 Z" />
<path fill="#383838" opacity="0.22" d=" M 15.17 16.05 C 16.04 17.09 16.90 18.12 17.77 19.16 C 16.66 20.67 15.54 22.18 14.42 23.69 C 13.59 23.32 11.93 22.58 11.09 22.21 C 12.20 20.00 13.58 17.94 15.17 16.05 Z" />
<path fill="#383838" opacity="0.22" d=" M 46.93 19.83 C 47.82 18.78 48.72 17.73 49.63 16.70 C 50.82 18.55 51.94 20.45 52.98 22.39 C 51.74 22.83 50.51 23.26 49.27 23.70 C 48.49 22.40 47.72 21.11 46.93 19.83 Z" />
<path fill="#383838" opacity="0.22" d=" M 10.30 23.62 C 11.45 24.29 12.59 24.96 13.74 25.63 C 13.46 27.42 13.18 29.22 12.90 31.01 C 11.54 31.00 10.18 30.99 8.82 30.98 C 9.20 28.50 9.70 26.05 10.30 23.62 Z" />
<path fill="#383838" opacity="0.22" d=" M 50.30 25.59 C 51.48 25.07 52.66 24.55 53.85 24.04 C 54.37 26.33 54.82 28.65 55.17 30.98 C 53.82 30.99 52.47 31.00 51.12 31.01 C 50.84 29.21 50.57 27.40 50.30 25.59 Z" />
<path fill="#383838" opacity="0.22" d=" M 8.82 33.03 C 10.18 33.01 11.54 33.00 12.91 32.99 C 13.18 34.78 13.45 36.58 13.73 38.37 C 12.60 39.04 11.47 39.71 10.33 40.38 C 9.70 37.96 9.19 35.50 8.82 33.03 Z" />
<path fill="#383838" opacity="0.22" d=" M 51.12 32.99 C 52.47 33.00 53.82 33.01 55.17 33.02 C 54.82 35.35 54.39 37.67 53.87 39.97 C 52.68 39.45 51.48 38.93 50.29 38.40 C 50.57 36.60 50.84 34.79 51.12 32.99 Z" />
<path fill="#383838" opacity="0.22" d=" M 49.28 40.31 C 50.50 40.71 51.72 41.12 52.93 41.52 C 52.02 43.52 50.92 45.43 49.68 47.24 C 48.54 46.51 47.40 45.78 46.25 45.05 C 47.27 43.47 48.28 41.90 49.28 40.31 Z" />
<path fill="#383838" opacity="0.22" d=" M 11.15 41.73 C 11.94 41.37 13.52 40.63 14.31 40.27 C 15.52 41.75 16.67 43.27 17.77 44.83 C 16.90 45.87 16.02 46.90 15.15 47.93 C 13.56 46.04 12.13 44.01 11.15 41.73 Z" />
<path fill="#383838" opacity="0.22" d=" M 40.29 49.35 C 41.85 48.30 43.41 47.25 44.96 46.19 C 45.90 47.12 46.84 48.06 47.77 49.00 C 45.89 50.53 43.88 51.88 41.72 52.99 C 41.24 51.77 40.77 50.56 40.29 49.35 Z" />
<path fill="#383838" opacity="0.22" d=" M 16.78 49.72 C 17.45 48.53 18.12 47.35 18.79 46.17 C 20.43 47.21 22.06 48.25 23.70 49.28 C 23.26 50.51 22.81 51.74 22.36 52.96 C 20.46 51.95 18.61 50.86 16.78 49.72 Z" />
<path fill="#383838" opacity="0.22" d=" M 24.04 53.56 C 24.40 52.73 25.13 51.07 25.50 50.24 C 27.34 50.54 29.17 50.84 31.01 51.14 C 31.00 52.48 30.99 53.83 30.97 55.18 C 28.61 54.89 26.27 54.40 24.04 53.56 Z" />
<path fill="#383838" opacity="0.22" d=" M 32.98 51.05 C 34.86 51.03 37.01 49.91 38.74 50.77 C 39.09 51.48 39.79 52.89 40.14 53.59 C 37.83 54.36 35.44 54.87 33.02 55.17 C 33.01 53.80 33.00 52.42 32.98 51.05 Z" />
</g>
</svg>
