<?xml version="1.0" encoding="UTF-8" ?>
<!DOCTYPE svg PUBLIC "-//W3C//DTD SVG 1.1//EN" "http://www.w3.org/Graphics/SVG/1.1/DTD/svg11.dtd">
<svg width="64pt" height="64pt" viewBox="0 0 64 64" version="1.1" xmlns="http://www.w3.org/2000/svg">
<g id="#fefefefe">
<path fill="#fefefe" opacity="1.00" d=" M 32.02 5.48 C 40.08 5.81 48.01 9.68 52.74 16.31 C 56.20 20.79 57.73 26.41 58.12 31.98 C 55.77 32.00 53.43 32.00 51.09 32.00 C 51.03 21.86 42.14 12.97 32.00 12.91 C 32.00 10.43 32.00 7.96 32.02 5.48 Z" />
<path fill="#fefefe" opacity="1.00" d=" M 31.36 17.27 C 31.62 17.26 32.15 17.24 32.41 17.23 C 33.43 19.78 33.38 22.56 33.61 25.26 C 32.69 25.27 30.84 25.28 29.92 25.29 C 30.38 22.62 30.25 19.79 31.36 17.27 Z" />
<path fill="#fefefe" opacity="1.00" d=" M 30.19 26.30 C 31.31 26.29 32.43 26.28 33.55 26.27 C 33.80 28.03 34.33 29.74 35.38 31.20 C 35.49 36.02 35.45 40.85 35.29 45.68 C 33.04 45.65 30.79 45.65 28.54 45.73 C 28.65 39.21 27.43 32.44 30.19 26.30 Z" />
</g>
<g id="#38383838">
<path fill="#383838" opacity="0.22" d=" M 23.71 10.51 C 25.80 9.92 27.88 9.34 29.97 8.75 C 29.98 10.24 29.99 11.72 30.01 13.20 C 28.60 13.37 27.18 13.49 25.77 13.56 C 25.25 12.80 24.23 11.27 23.71 10.51 Z" />
<path fill="#383838" opacity="0.22" d=" M 16.42 14.78 C 18.35 13.43 20.33 12.15 22.37 10.96 C 22.80 12.22 23.24 13.48 23.67 14.73 C 22.16 15.69 20.66 16.65 19.16 17.61 C 18.24 16.67 17.33 15.73 16.42 14.78 Z" />
<path fill="#383838" opacity="0.22" d=" M 11.11 22.24 C 12.28 20.06 13.60 17.96 15.00 15.91 C 15.95 17.00 16.90 18.08 17.85 19.16 C 16.67 20.68 15.52 22.22 14.35 23.74 C 13.54 23.37 11.92 22.62 11.11 22.24 Z" />
<path fill="#383838" opacity="0.22" d=" M 8.76 30.98 C 9.25 28.43 9.80 25.90 10.40 23.39 C 11.50 24.17 12.61 24.95 13.72 25.73 C 13.45 27.49 13.18 29.25 12.91 31.01 C 11.53 31.00 10.14 30.99 8.76 30.98 Z" />
<path fill="#383838" opacity="0.22" d=" M 8.80 33.02 C 10.17 33.01 11.54 33.00 12.90 32.99 C 13.17 34.90 13.43 36.81 13.70 38.73 C 12.49 39.12 11.28 39.52 10.06 39.91 C 9.64 37.62 9.22 35.32 8.80 33.02 Z" />
<path fill="#383838" opacity="0.22" d=" M 51.01 34.01 C 52.39 34.01 53.77 34.00 55.16 34.00 C 54.66 36.17 54.15 38.34 53.65 40.52 C 52.54 39.71 51.43 38.91 50.31 38.11 C 50.54 36.75 50.78 35.38 51.01 34.01 Z" />
<path fill="#383838" opacity="0.22" d=" M 46.32 44.86 C 47.42 43.29 48.48 41.71 49.57 40.14 C 50.75 40.75 51.92 41.35 53.10 41.96 C 51.82 43.79 50.53 45.60 49.22 47.41 C 48.26 46.56 47.29 45.71 46.32 44.86 Z" />
<path fill="#383838" opacity="0.22" d=" M 11.05 41.80 C 11.89 41.41 13.57 40.63 14.41 40.24 C 15.51 41.75 16.59 43.28 17.69 44.79 C 16.90 45.84 16.12 46.90 15.33 47.95 C 13.68 46.07 12.25 44.00 11.05 41.80 Z" />
<path fill="#383838" opacity="0.22" d=" M 40.32 49.33 C 41.85 48.29 43.38 47.25 44.91 46.20 C 45.88 47.15 46.84 48.10 47.81 49.06 C 45.83 50.48 43.78 51.81 41.65 53.01 C 41.21 51.78 40.77 50.56 40.32 49.33 Z" />
<path fill="#383838" opacity="0.22" d=" M 16.60 49.25 C 17.40 48.27 18.20 47.28 19.00 46.30 C 20.56 47.29 22.11 48.28 23.68 49.26 C 23.23 50.54 22.79 51.82 22.35 53.10 C 20.37 51.91 18.45 50.64 16.60 49.25 Z" />
<path fill="#383838" opacity="0.22" d=" M 23.94 53.58 C 24.35 52.74 25.17 51.04 25.58 50.19 C 27.39 50.50 29.20 50.80 31.01 51.11 C 31.00 52.50 30.98 53.89 30.97 55.28 C 28.60 54.81 26.26 54.27 23.94 53.58 Z" />
<path fill="#383838" opacity="0.22" d=" M 32.98 51.04 C 35.01 50.84 37.03 50.58 39.06 50.39 C 39.18 51.31 39.43 53.17 39.56 54.10 C 37.38 54.45 35.20 54.81 33.02 55.16 C 33.01 53.78 33.00 52.41 32.98 51.04 Z" />
</g>
</svg>
