<?xml version="1.0" encoding="UTF-8" ?>
<!DOCTYPE svg PUBLIC "-//W3C//DTD SVG 1.1//EN" "http://www.w3.org/Graphics/SVG/1.1/DTD/svg11.dtd">
<svg width="64pt" height="64pt" viewBox="0 0 64 64" version="1.1" xmlns="http://www.w3.org/2000/svg">
<g id="#fefefefe">
<path fill="#fefefe" opacity="1.00" d=" M 28.05 15.97 C 29.56 15.45 30.95 14.67 32.30 13.83 C 33.35 14.49 35.52 14.29 35.44 16.02 C 35.42 22.82 35.11 29.65 35.94 36.42 C 35.48 37.42 35.13 38.47 34.90 39.55 C 34.44 40.12 33.53 41.26 33.07 41.83 C 32.99 41.03 32.83 39.44 32.75 38.64 C 30.83 37.56 30.73 35.34 30.36 33.42 L 29.30 33.65 C 29.28 32.37 29.24 31.09 29.20 29.81 C 28.24 27.05 28.26 24.08 28.17 21.18 C 27.54 20.21 26.92 19.22 26.32 18.22 C 26.76 17.66 27.62 16.54 28.05 15.97 Z" />
<path fill="#fefefe" opacity="1.00" d=" M 9.57 20.66 C 10.73 18.24 13.04 16.84 15.17 15.38 C 15.90 15.51 17.37 15.77 18.10 15.90 C 19.15 23.08 19.90 30.35 21.77 37.38 C 21.04 39.18 20.59 41.07 20.23 42.97 C 19.08 39.72 15.68 37.91 15.39 34.25 C 15.08 34.37 14.46 34.62 14.15 34.75 C 13.14 29.95 13.05 24.44 9.57 20.66 Z" />
<path fill="#fefefe" opacity="1.00" d=" M 45.20 16.67 C 47.00 16.50 48.76 16.10 50.53 15.75 C 51.05 16.21 52.07 17.12 52.58 17.57 C 51.54 24.50 50.59 31.46 50.04 38.45 C 49.19 39.93 48.76 41.71 47.34 42.81 C 47.46 44.73 49.13 45.80 50.87 46.16 C 50.99 46.86 51.24 48.25 51.36 48.94 C 50.52 49.66 49.69 50.40 48.87 51.14 C 46.94 50.35 45.06 49.43 43.18 48.52 C 43.06 47.31 42.94 46.10 42.81 44.90 C 43.71 44.87 45.51 44.82 46.42 44.79 C 47.03 43.36 47.14 41.75 46.75 40.24 C 43.61 35.88 44.39 30.16 44.22 25.11 L 45.74 25.38 C 45.77 25.14 45.83 24.67 45.86 24.43 L 44.35 25.09 C 44.43 22.97 44.20 20.86 43.47 18.86 C 43.90 18.32 44.77 17.22 45.20 16.67 Z" />
<path fill="#fefefe" opacity="1.00" d=" M 29.65 44.33 C 32.04 42.45 35.06 43.22 37.81 43.62 C 37.98 44.29 38.33 45.64 38.50 46.31 C 37.89 47.24 37.29 48.18 36.71 49.14 C 34.64 48.85 32.64 48.26 30.63 47.73 C 30.38 46.88 29.89 45.18 29.65 44.33 Z" />
<path fill="#fefefe" opacity="1.00" d=" M 19.27 44.07 C 20.98 44.00 22.70 43.91 24.40 43.73 C 24.77 44.76 25.13 45.79 25.48 46.82 C 25.12 47.45 24.40 48.70 24.03 49.33 C 21.97 49.42 19.90 49.20 17.84 49.07 C 17.42 47.97 16.99 46.88 16.57 45.78 C 17.47 45.22 18.37 44.65 19.27 44.07 Z" />
</g>
</svg>
