<?xml version="1.0" encoding="UTF-8" ?>
<!DOCTYPE svg PUBLIC "-//W3C//DTD SVG 1.1//EN" "http://www.w3.org/Graphics/SVG/1.1/DTD/svg11.dtd">
<svg width="64pt" height="64pt" viewBox="0 0 64 64" version="1.1" xmlns="http://www.w3.org/2000/svg">
<g id="#ffffffff">
<path fill="#ffffff" opacity="1.00" d=" M 13.25 7.89 C 15.83 6.90 18.85 8.58 21.01 6.40 C 22.03 7.53 23.36 8.14 24.99 8.21 C 24.33 8.52 23.01 9.12 22.35 9.43 C 22.63 9.99 23.17 11.11 23.45 11.67 C 22.13 11.60 20.81 11.52 19.50 11.45 C 18.03 13.17 15.97 14.47 15.25 16.74 C 16.41 16.55 18.75 16.19 19.91 16.00 C 22.01 18.18 25.04 17.24 27.71 17.25 C 27.88 15.44 27.96 13.62 28.19 11.81 C 30.08 11.16 32.10 11.90 34.03 12.01 C 36.02 12.44 38.56 11.99 39.80 14.01 C 39.12 14.16 37.74 14.47 37.05 14.63 C 37.34 16.20 37.37 17.79 37.20 19.37 C 40.11 20.26 43.06 19.18 46.00 19.15 C 45.85 17.63 45.68 16.06 44.39 15.04 C 43.03 15.59 41.67 16.13 40.31 16.68 C 41.99 14.94 41.69 12.65 41.58 10.47 C 42.22 10.72 43.50 11.22 44.13 11.47 C 44.58 11.05 45.48 10.22 45.93 9.80 C 48.29 9.89 49.97 11.14 50.93 13.25 C 53.32 14.02 55.74 14.80 57.25 16.98 C 56.15 18.12 56.00 19.40 56.82 20.80 C 56.40 20.67 55.57 20.42 55.15 20.29 L 54.85 22.07 C 53.59 20.21 52.39 18.32 50.91 16.62 C 51.16 19.69 52.34 22.95 51.11 25.96 C 47.96 27.69 44.28 28.15 40.81 28.93 C 40.24 32.47 37.04 34.68 36.41 38.06 C 38.00 37.47 39.58 36.84 41.20 36.33 C 40.14 37.43 39.00 38.44 37.85 39.43 C 39.46 42.09 41.32 44.63 42.62 47.47 C 43.77 50.90 44.33 54.51 45.00 58.06 C 42.91 58.08 40.81 58.09 38.72 58.14 C 37.05 54.89 36.75 50.71 33.71 48.34 C 32.58 47.34 31.41 46.39 30.23 45.45 C 28.95 49.60 28.12 53.89 26.65 57.99 C 24.14 58.63 21.46 58.16 18.88 58.27 C 20.04 54.21 22.34 50.28 21.81 45.93 C 21.45 43.37 21.75 40.82 22.40 38.33 C 21.62 37.29 20.05 35.20 19.26 34.16 C 21.36 39.23 23.75 31.72 25.46 35.36 C 26.51 36.30 27.50 37.31 28.42 38.38 C 30.22 38.36 32.03 38.31 33.83 38.25 C 34.45 36.50 34.82 34.25 37.15 34.23 C 38.17 32.21 38.51 29.78 40.06 28.08 C 42.29 26.76 45.06 26.82 47.54 26.28 L 47.51 25.74 C 48.22 25.61 49.65 25.34 50.36 25.21 C 50.45 22.42 50.22 19.62 50.49 16.83 C 49.61 15.63 48.66 14.49 47.66 13.40 C 50.76 12.29 47.84 11.43 46.41 11.25 C 46.07 11.94 45.39 13.32 45.05 14.02 C 47.67 15.29 48.03 17.89 47.29 20.46 C 46.41 20.83 45.53 21.20 44.65 21.58 L 44.47 20.33 C 41.82 21.41 38.98 22.18 36.69 19.88 C 36.18 20.31 35.15 21.16 34.64 21.59 C 33.24 21.60 31.84 21.60 30.44 21.59 C 29.28 20.59 28.21 19.43 26.86 18.68 C 24.53 18.34 22.04 19.30 19.93 17.88 C 17.88 16.57 16.15 18.79 14.60 19.80 C 14.61 17.69 14.65 15.58 14.64 13.47 L 15.39 13.39 C 15.40 12.80 15.42 11.61 15.43 11.02 C 15.78 11.50 16.48 12.46 16.84 12.94 C 18.34 11.79 17.93 8.06 15.36 8.90 C 14.54 8.84 13.83 8.50 13.25 7.89 M 28.25 15.38 C 27.68 18.49 30.50 21.90 33.75 20.79 C 36.49 20.20 37.27 16.95 36.51 14.57 C 33.75 14.78 31.00 15.09 28.25 15.38 Z" />
<path fill="#ffffff" opacity="1.00" d=" M 6.76 14.31 C 8.74 11.74 11.15 9.28 14.65 9.36 C 12.62 13.40 11.27 17.76 10.81 22.25 C 13.04 22.97 15.34 23.46 17.67 23.59 L 18.18 23.88 C 18.45 24.04 18.98 24.37 19.25 24.53 C 20.16 26.02 20.95 27.57 21.71 29.13 C 22.37 30.95 24.54 33.33 22.33 34.93 C 20.68 31.41 20.33 26.13 16.09 24.73 C 14.10 24.42 12.21 23.75 10.47 22.75 C 10.69 21.09 10.90 19.43 11.13 17.77 C 10.16 17.50 9.20 17.23 8.23 16.96 C 7.86 16.30 7.13 14.98 6.76 14.31 Z" />
<path fill="#ffffff" opacity="1.00" d=" M 32.86 23.65 C 33.69 24.89 33.78 26.38 33.66 27.84 C 35.00 28.10 36.35 28.29 37.70 28.50 C 37.23 29.53 36.11 30.03 35.00 29.70 C 31.69 29.20 27.95 29.28 25.51 26.58 C 27.69 26.88 29.86 27.29 32.04 27.57 C 32.24 26.59 32.65 24.63 32.86 23.65 Z" />
<path fill="#ffffff" opacity="1.00" d=" M 27.10 33.60 C 28.93 33.91 30.64 33.90 30.58 31.59 C 31.23 32.93 32.36 33.87 33.59 34.67 C 32.45 35.28 31.36 35.99 30.34 36.78 C 29.93 35.14 28.35 34.50 27.10 33.60 Z" />
</g>
</svg>
