<?xml version="1.0" encoding="UTF-8" ?>
<!DOCTYPE svg PUBLIC "-//W3C//DTD SVG 1.1//EN" "http://www.w3.org/Graphics/SVG/1.1/DTD/svg11.dtd">
<svg width="64pt" height="64pt" viewBox="0 0 64 64" version="1.1" xmlns="http://www.w3.org/2000/svg">
<g id="#ffffffff">
<path fill="#ffffff" opacity="1.00" d=" M 39.65 15.00 C 42.47 15.00 45.28 15.00 48.09 15.00 C 47.88 17.66 50.92 16.87 52.60 17.40 C 52.60 16.80 52.60 15.59 52.60 14.98 C 55.36 15.82 58.14 16.59 60.91 17.37 C 60.97 23.95 61.07 30.54 60.88 37.11 C 60.14 45.66 51.70 51.06 43.97 52.62 C 38.67 51.65 33.62 48.91 30.08 44.81 C 30.42 44.30 31.09 43.28 31.43 42.76 C 34.51 46.66 39.05 49.31 43.89 50.30 C 50.50 48.79 57.57 44.25 58.61 37.03 C 59.04 31.17 58.27 25.30 58.66 19.44 C 57.46 19.00 56.25 18.58 55.04 18.18 L 55.02 20.19 C 52.13 19.61 49.19 19.46 46.27 19.15 C 46.11 18.69 45.78 17.76 45.62 17.29 C 44.44 17.29 43.27 17.28 42.09 17.27 C 42.06 17.75 41.98 18.72 41.95 19.20 C 38.93 19.33 35.92 19.59 32.97 20.19 C 32.87 19.66 32.67 18.61 32.57 18.09 C 31.63 18.49 30.70 18.90 29.76 19.31 C 28.91 18.61 28.06 17.92 27.21 17.22 C 29.91 16.55 32.58 15.78 35.24 15.01 C 35.22 15.60 35.18 16.78 35.16 17.37 C 36.89 16.91 39.88 17.64 39.65 15.00 Z" />
<path fill="#ffffff" opacity="1.00" d=" M 8.17 20.22 C 13.50 14.79 23.34 14.78 28.55 20.37 C 31.67 23.75 31.45 28.79 30.13 32.90 C 28.51 36.16 32.12 39.51 29.84 42.63 C 28.91 45.01 26.24 43.97 24.31 44.30 C 23.42 45.75 23.89 47.43 23.95 49.01 L 22.64 48.26 C 22.40 48.94 21.91 50.31 21.67 50.99 L 20.99 49.52 C 19.36 51.97 16.18 50.12 13.82 50.10 C 14.00 49.60 14.36 48.60 14.54 48.10 C 14.12 48.22 13.28 48.47 12.86 48.59 C 12.56 47.17 13.63 44.99 11.89 44.22 C 9.89 44.18 7.29 44.83 6.64 42.26 C 4.43 39.35 8.10 36.22 6.62 33.09 C 5.13 28.90 4.99 23.68 8.17 20.22 M 9.21 32.08 C 9.16 33.50 8.73 35.12 9.74 36.33 C 11.28 39.14 15.79 38.53 17.40 36.07 C 15.28 33.73 12.36 32.34 9.21 32.08 M 21.43 34.29 C 20.61 34.99 19.14 36.28 20.51 37.24 C 22.00 38.24 24.13 38.43 25.80 37.77 C 27.56 36.66 27.84 34.41 28.26 32.56 C 25.84 31.91 23.39 32.92 21.43 34.29 M 15.06 43.08 C 17.23 41.83 19.48 41.75 21.65 43.09 C 20.76 41.83 19.99 40.14 18.34 39.75 C 16.66 40.13 15.92 41.78 15.06 43.08 Z" />
<path fill="#ffffff" opacity="1.00" d=" M 37.38 23.53 C 39.63 25.23 41.75 27.09 43.88 28.94 C 48.28 28.93 52.68 28.93 57.09 28.93 C 56.87 32.86 57.87 37.13 55.83 40.73 C 53.46 45.25 48.46 47.32 43.91 48.94 C 39.99 47.62 35.99 45.96 33.20 42.78 C 31.51 41.34 32.30 38.94 31.82 37.03 C 34.02 37.07 36.23 37.08 38.43 37.07 C 38.43 37.88 38.42 39.51 38.42 40.32 C 41.40 37.91 44.26 35.35 47.30 33.01 C 44.33 30.85 41.48 28.53 38.73 26.09 C 38.64 26.79 38.45 28.18 38.36 28.88 C 36.48 29.38 34.45 29.05 32.51 29.16 L 32.56 27.86 C 34.10 27.87 35.63 27.88 37.17 27.88 C 37.27 26.43 37.34 24.98 37.38 23.53 Z" />
</g>
</svg>
