<?xml version="1.0" encoding="UTF-8" ?>
<!DOCTYPE svg PUBLIC "-//W3C//DTD SVG 1.1//EN" "http://www.w3.org/Graphics/SVG/1.1/DTD/svg11.dtd">
<svg width="64pt" height="64pt" viewBox="0 0 64 64" version="1.1" xmlns="http://www.w3.org/2000/svg">
<g id="#fefefefe">
<path fill="#fefefe" opacity="1.00" d=" M 32.00 6.64 C 42.65 6.83 52.55 13.93 56.32 23.85 C 54.18 24.56 52.04 25.27 49.92 26.02 C 46.90 18.92 39.79 13.85 32.00 13.89 C 32.00 11.47 32.00 9.06 32.00 6.64 Z" />
<path fill="#fefefe" opacity="1.00" d=" M 19.14 23.08 C 21.74 21.56 25.00 21.62 27.87 22.24 C 29.04 22.68 30.81 22.53 31.21 24.04 C 31.65 26.18 31.10 28.39 31.10 30.55 L 33.47 30.30 C 33.43 28.19 32.53 26.22 32.30 24.17 C 36.37 20.46 45.05 20.73 47.22 26.52 C 48.98 30.10 47.45 34.16 45.29 37.18 C 41.79 41.92 36.98 45.45 32.00 48.50 C 26.25 44.95 20.51 40.77 17.14 34.77 C 14.97 31.02 15.57 25.75 19.14 23.08 M 26.44 25.16 C 26.29 30.79 24.47 36.16 25.16 41.84 C 26.42 41.85 27.69 41.86 28.95 41.88 C 29.09 37.89 29.15 33.88 28.25 29.97 C 27.85 28.33 28.76 25.59 26.44 25.16 M 38.29 30.63 C 38.06 28.66 38.35 26.46 37.00 24.80 C 35.99 26.64 34.82 31.16 38.29 30.63 M 31.48 30.85 C 29.14 34.02 30.45 38.26 30.20 41.91 C 31.47 41.91 32.73 41.89 33.99 41.86 C 33.92 38.06 34.36 34.18 33.29 30.48 C 32.84 30.57 31.93 30.76 31.48 30.85 M 36.21 30.59 C 34.41 34.08 35.12 38.10 35.18 41.86 C 36.45 41.86 37.72 41.86 38.99 41.86 C 38.99 39.20 39.07 36.55 38.97 33.89 C 38.92 32.36 38.21 30.09 36.21 30.59 Z" />
</g>
<g id="#38383838">
<path fill="#383838" opacity="0.22" d=" M 24.19 11.20 C 26.12 10.75 28.04 10.30 29.98 9.87 C 29.99 11.23 29.99 12.60 29.98 13.96 C 28.45 14.24 26.92 14.51 25.38 14.80 C 24.97 13.60 24.57 12.40 24.19 11.20 Z" />
<path fill="#383838" opacity="0.22" d=" M 16.59 15.93 C 18.27 14.25 20.25 12.90 22.47 12.03 C 22.88 13.27 23.29 14.50 23.69 15.74 C 22.17 16.67 20.65 17.59 19.13 18.51 C 18.28 17.65 17.44 16.79 16.59 15.93 Z" />
<path fill="#383838" opacity="0.22" d=" M 15.23 17.09 C 16.08 18.15 16.94 19.22 17.79 20.28 C 16.65 21.79 15.45 23.25 14.16 24.63 C 13.42 24.30 11.93 23.64 11.19 23.32 C 12.01 20.93 13.63 18.99 15.23 17.09 Z" />
<path fill="#383838" opacity="0.22" d=" M 8.86 32.02 C 9.17 29.41 9.71 26.83 10.44 24.30 C 11.51 25.17 12.58 26.03 13.64 26.91 C 13.38 28.60 13.13 30.30 12.87 31.99 C 11.53 32.00 10.19 32.02 8.86 32.02 Z" />
<path fill="#383838" opacity="0.22" d=" M 50.91 27.28 C 52.16 27.21 53.40 27.15 54.65 27.10 C 54.79 28.74 54.93 30.39 55.07 32.04 C 53.70 32.02 52.32 31.99 50.94 31.97 C 50.93 30.41 50.91 28.84 50.91 27.28 Z" />
<path fill="#383838" opacity="0.22" d=" M 8.87 33.99 C 10.21 33.99 11.56 34.00 12.91 34.01 C 13.18 35.90 13.46 37.78 13.75 39.67 C 12.54 40.07 11.33 40.47 10.12 40.85 C 9.60 38.59 9.18 36.29 8.87 33.99 Z" />
<path fill="#383838" opacity="0.22" d=" M 51.14 33.99 C 52.48 33.99 53.83 33.99 55.17 33.99 C 54.85 36.33 54.39 38.65 53.81 40.93 C 52.65 40.37 51.50 39.80 50.35 39.22 C 50.62 37.48 50.88 35.73 51.14 33.99 Z" />
<path fill="#383838" opacity="0.22" d=" M 49.26 41.22 C 50.51 41.79 51.76 42.36 53.01 42.93 C 51.89 44.69 50.76 46.46 49.65 48.23 C 48.54 47.54 47.46 46.79 46.41 46.01 C 47.38 44.42 48.33 42.82 49.26 41.22 Z" />
<path fill="#383838" opacity="0.22" d=" M 11.42 43.60 C 11.44 42.19 13.31 42.00 14.10 41.15 C 15.44 42.63 16.64 44.21 17.72 45.89 C 16.82 46.83 15.93 47.76 15.04 48.69 C 13.75 47.07 12.28 45.52 11.42 43.60 Z" />
<path fill="#383838" opacity="0.22" d=" M 40.15 50.65 C 41.64 49.51 43.07 48.20 44.80 47.43 C 46.05 47.79 46.69 49.18 47.66 49.97 C 45.90 51.41 44.06 52.74 42.13 53.94 C 41.46 52.85 40.81 51.75 40.15 50.65 Z" />
<path fill="#383838" opacity="0.22" d=" M 16.67 50.11 C 17.47 49.21 18.27 48.31 19.07 47.42 C 20.59 48.34 22.17 49.19 23.52 50.35 C 23.35 51.59 22.94 52.78 22.62 53.99 C 20.39 53.10 18.36 51.82 16.67 50.11 Z" />
<path fill="#383838" opacity="0.22" d=" M 24.11 54.80 C 24.63 53.63 25.16 52.47 25.69 51.31 C 27.44 51.57 29.18 51.82 30.93 52.08 C 30.97 53.45 31.01 54.83 31.04 56.21 C 28.70 55.86 26.39 55.39 24.11 54.80 Z" />
<path fill="#383838" opacity="0.22" d=" M 32.98 52.02 C 34.37 51.83 35.77 51.67 37.17 51.54 C 39.05 50.97 39.34 53.41 40.13 54.50 C 37.85 55.38 35.46 55.89 33.03 56.17 C 33.01 54.79 33.00 53.41 32.98 52.02 Z" />
</g>
</svg>
