<?xml version="1.0" encoding="UTF-8" ?>
<!DOCTYPE svg PUBLIC "-//W3C//DTD SVG 1.1//EN" "http://www.w3.org/Graphics/SVG/1.1/DTD/svg11.dtd">
<svg width="64pt" height="64pt" viewBox="0 0 64 64" version="1.1" xmlns="http://www.w3.org/2000/svg">
<g id="#fefefefe">
<path fill="#fefefe" opacity="1.00" d=" M 32.00 5.51 C 41.57 5.60 50.91 11.01 55.33 19.57 C 60.77 29.57 58.78 42.93 50.57 50.85 C 48.97 49.02 47.25 47.31 45.54 45.60 C 49.72 41.21 51.84 34.96 50.80 28.93 C 49.61 19.87 41.08 12.80 32.00 12.89 C 32.00 10.43 32.00 7.97 32.00 5.51 Z" />
<path fill="#fefefe" opacity="1.00" d=" M 20.12 23.10 C 23.75 21.09 28.32 21.76 31.59 24.15 C 35.07 21.78 39.85 21.01 43.56 23.30 C 46.39 25.95 47.10 30.48 45.11 33.84 C 42.05 39.24 36.92 43.23 31.54 46.14 C 26.20 42.38 20.22 38.54 17.63 32.26 C 16.22 29.07 17.55 25.25 20.12 23.10 M 29.86 27.31 C 29.83 28.72 29.82 30.13 29.79 31.53 C 28.39 31.53 26.98 31.52 25.57 31.51 C 25.57 32.46 25.57 34.36 25.57 35.31 C 26.98 35.29 28.40 35.27 29.82 35.25 C 29.82 36.65 29.83 38.06 29.85 39.46 C 30.74 39.45 32.53 39.43 33.42 39.42 C 33.43 38.04 33.43 36.66 33.43 35.28 C 34.86 35.27 36.29 35.25 37.72 35.23 C 37.70 33.99 37.67 32.76 37.63 31.52 C 36.24 31.54 34.85 31.55 33.46 31.56 C 33.45 30.14 33.43 28.73 33.43 27.31 C 32.23 27.31 31.04 27.31 29.86 27.31 Z" />
</g>
<g id="#38383838">
<path fill="#383838" opacity="0.22" d=" M 24.35 10.00 C 26.24 9.64 28.12 9.28 30.00 8.91 C 29.99 10.29 29.99 11.66 29.99 13.04 C 28.42 13.30 26.86 13.56 25.29 13.81 C 25.00 12.53 24.68 11.26 24.35 10.00 Z" />
<path fill="#383838" opacity="0.22" d=" M 16.38 14.94 C 18.20 13.36 20.21 12.03 22.40 11.03 C 22.84 12.25 23.27 13.47 23.70 14.69 C 22.21 15.65 20.71 16.60 19.22 17.56 C 18.28 16.68 17.33 15.81 16.38 14.94 Z" />
<path fill="#383838" opacity="0.22" d=" M 15.19 16.06 C 16.06 17.11 16.94 18.16 17.81 19.21 C 16.70 20.74 15.55 22.24 14.38 23.72 C 13.56 23.34 11.92 22.57 11.10 22.19 C 12.19 19.98 13.57 17.93 15.19 16.06 Z" />
<path fill="#383838" opacity="0.22" d=" M 10.33 23.74 C 11.47 24.35 12.60 24.96 13.74 25.57 C 13.46 27.38 13.19 29.20 12.91 31.01 C 11.55 31.00 10.19 30.99 8.83 30.97 C 9.17 28.53 9.67 26.12 10.33 23.74 Z" />
<path fill="#383838" opacity="0.22" d=" M 8.83 33.03 C 10.19 33.01 11.55 33.00 12.91 32.99 C 13.19 34.80 13.46 36.62 13.74 38.43 C 12.60 39.04 11.47 39.65 10.33 40.26 C 9.67 37.88 9.17 35.47 8.83 33.03 Z" />
<path fill="#383838" opacity="0.22" d=" M 11.10 41.83 C 11.91 41.43 13.53 40.64 14.35 40.24 C 15.54 41.73 16.64 43.29 17.69 44.89 C 16.85 45.91 16.01 46.93 15.17 47.95 C 13.61 46.06 12.24 44.01 11.10 41.83 Z" />
<path fill="#383838" opacity="0.22" d=" M 16.57 49.23 C 17.37 48.24 18.16 47.24 18.96 46.25 C 20.56 47.30 22.16 48.36 23.76 49.42 C 23.25 50.64 22.74 51.85 22.22 53.07 C 20.25 51.93 18.36 50.65 16.57 49.23 Z" />
<path fill="#383838" opacity="0.22" d=" M 40.29 49.22 C 41.58 48.46 42.87 47.70 44.17 46.95 C 45.01 47.96 45.84 48.98 46.67 50.01 C 45.05 51.04 43.42 52.05 41.78 53.05 C 41.28 51.77 40.79 50.50 40.29 49.22 Z" />
<path fill="#383838" opacity="0.22" d=" M 24.06 53.62 C 24.41 52.78 25.10 51.10 25.45 50.27 C 27.30 50.55 29.16 50.84 31.01 51.12 C 31.00 52.47 30.99 53.81 30.98 55.16 C 28.62 54.91 26.30 54.39 24.06 53.62 Z" />
<path fill="#383838" opacity="0.22" d=" M 32.98 51.02 C 35.02 50.78 37.06 50.57 39.10 50.40 C 39.14 51.29 39.23 53.07 39.27 53.96 C 37.24 54.62 35.12 54.86 33.03 55.15 C 33.01 53.77 32.99 52.39 32.98 51.02 Z" />
</g>
</svg>
