<?xml version="1.0" encoding="UTF-8" ?>
<!DOCTYPE svg PUBLIC "-//W3C//DTD SVG 1.1//EN" "http://www.w3.org/Graphics/SVG/1.1/DTD/svg11.dtd">
<svg width="50pt" height="50pt" viewBox="0 0 50 50" version="1.1" xmlns="http://www.w3.org/2000/svg">
<g id="#fefefeff">
<path fill="#fefefe" opacity="1.00" d=" M 3.10 5.06 C 4.56 2.63 7.53 2.36 10.02 1.76 C 12.20 2.40 14.82 2.59 16.31 4.53 C 17.67 6.05 17.91 8.13 18.18 10.06 C 16.57 13.01 10.99 10.91 11.09 14.90 C 12.28 16.84 15.57 15.75 16.76 14.15 C 17.11 14.84 17.80 16.23 18.15 16.92 C 17.23 18.67 15.56 19.37 13.71 19.68 C 13.00 21.03 12.78 22.91 11.08 23.41 C 9.59 23.82 8.21 22.99 6.86 22.51 C 6.58 21.41 6.35 20.31 6.15 19.19 C 5.37 19.23 3.81 19.30 3.04 19.34 C 1.60 17.47 1.72 14.99 3.83 13.72 C 5.02 16.22 7.93 16.04 9.55 14.20 C 7.43 12.37 4.82 11.70 2.11 12.41 C 2.03 9.96 1.22 7.08 3.10 5.06 M 9.22 17.22 C 9.24 20.54 12.41 15.77 9.22 17.22 Z" />
<path fill="#fefefe" opacity="1.00" d=" M 26.43 6.95 C 28.27 2.36 34.10 2.61 37.60 5.04 C 40.42 3.12 43.83 2.89 46.97 4.10 C 48.36 6.30 49.78 8.91 48.62 11.55 C 46.70 16.51 41.97 19.60 37.69 22.39 C 34.23 20.30 31.08 17.72 28.29 14.79 C 29.43 13.72 30.60 12.68 31.76 11.63 C 29.94 10.11 28.17 8.55 26.43 6.95 Z" />
<path fill="#fefefe" opacity="1.00" d=" M 23.19 6.47 C 25.05 8.27 27.03 9.95 28.99 11.64 C 27.02 13.39 24.97 15.05 23.08 16.89 C 23.36 13.97 20.61 14.76 18.71 14.53 C 18.79 12.58 18.97 10.64 19.06 8.69 C 20.88 8.64 23.25 9.09 23.19 6.47 Z" />
<path fill="#fefefe" opacity="1.00" d=" M 12.44 25.01 C 13.07 25.00 14.33 24.99 14.96 24.99 C 14.94 25.83 14.89 27.50 14.87 28.34 C 15.62 28.76 16.36 29.17 17.11 29.59 C 16.81 34.96 15.23 40.15 15.14 45.54 C 14.45 45.54 13.06 45.52 12.36 45.51 C 12.65 40.07 10.41 35.00 10.02 29.62 C 10.65 29.31 11.91 28.68 12.54 28.36 C 12.51 27.52 12.46 25.85 12.44 25.01 Z" />
<path fill="#fefefe" opacity="1.00" d=" M 20.51 25.01 C 21.12 25.00 22.32 24.99 22.92 24.99 C 22.92 25.85 22.91 27.57 22.91 28.42 C 23.45 28.70 24.54 29.26 25.08 29.53 C 24.77 34.93 23.21 40.15 23.10 45.56 C 22.41 45.55 21.03 45.51 20.34 45.50 C 20.61 40.10 18.44 35.06 17.98 29.74 C 20.38 29.18 20.71 27.11 20.51 25.01 Z" />
<path fill="#fefefe" opacity="1.00" d=" M 28.35 25.05 C 28.99 25.03 30.27 24.99 30.91 24.97 C 30.91 25.84 30.91 27.59 30.91 28.47 C 31.44 28.73 32.50 29.25 33.03 29.51 C 32.76 34.91 31.10 40.12 31.10 45.54 C 30.40 45.54 29.02 45.52 28.33 45.52 C 28.58 40.07 26.35 34.98 25.93 29.60 C 26.56 29.30 27.81 28.70 28.44 28.40 C 28.42 27.56 28.37 25.88 28.35 25.05 Z" />
<path fill="#fefefe" opacity="1.00" d=" M 36.39 24.99 C 36.99 24.98 38.20 24.98 38.80 24.97 C 38.84 26.89 38.61 29.12 40.98 29.67 C 40.72 35.01 39.04 40.15 39.07 45.52 C 38.38 45.52 37.01 45.53 36.32 45.53 C 36.50 40.08 34.31 34.98 33.86 29.59 C 34.69 29.22 35.52 28.85 36.35 28.47 C 36.36 27.60 36.38 25.86 36.39 24.99 Z" />
</g>
</svg>
