<?xml version="1.0" encoding="UTF-8" ?>
<!DOCTYPE svg PUBLIC "-//W3C//DTD SVG 1.1//EN" "http://www.w3.org/Graphics/SVG/1.1/DTD/svg11.dtd">
<svg width="64pt" height="64pt" viewBox="0 0 64 64" version="1.1" xmlns="http://www.w3.org/2000/svg">
<g id="#ffffffff">
<path fill="#ffffff" opacity="1.00" d=" M 38.89 5.01 C 40.96 5.00 43.04 5.00 45.11 5.01 C 45.99 8.74 41.37 8.01 39.12 7.43 C 39.07 6.83 38.95 5.62 38.89 5.01 Z" />
<path fill="#ffffff" opacity="1.00" d=" M 29.86 14.75 C 32.95 11.21 37.46 9.37 42.01 8.65 C 48.56 9.50 55.05 13.55 57.09 20.10 C 60.34 28.71 54.95 39.33 45.95 41.49 C 38.14 43.74 29.67 38.78 26.96 31.32 C 31.01 26.95 33.64 20.15 29.86 14.75 M 42.03 10.87 C 42.00 15.81 41.93 20.75 42.08 25.69 C 46.24 27.96 50.24 30.49 54.34 32.85 C 57.09 27.58 56.72 20.71 52.76 16.14 C 50.18 12.87 46.11 11.19 42.03 10.87 Z" />
<path fill="#ffffff" opacity="1.00" d=" M 51.07 10.68 C 50.56 8.22 54.58 9.26 54.26 11.22 C 53.89 13.06 51.44 11.94 51.07 10.68 Z" />
<path fill="#ffffff" opacity="1.00" d=" M 7.30 22.96 C 5.97 18.84 8.71 13.95 12.97 13.07 C 15.01 12.64 16.84 13.88 18.45 14.93 C 20.51 14.00 22.73 12.56 25.07 13.47 C 29.21 14.97 31.09 20.25 29.32 24.18 C 27.16 29.23 22.87 33.07 18.36 36.04 C 13.94 32.45 9.03 28.64 7.30 22.96 M 8.47 22.62 C 9.94 27.40 14.04 30.63 17.53 33.94 C 17.88 32.95 17.88 31.85 16.89 31.24 C 13.99 28.66 10.86 25.88 9.78 22.01 C 8.95 19.28 11.05 15.98 13.96 15.84 C 15.90 16.05 17.09 17.73 18.37 19.00 C 19.94 17.66 21.62 15.83 23.89 16.08 C 26.71 16.78 28.13 20.34 26.96 22.91 C 25.61 26.87 22.09 29.33 19.29 32.19 C 19.33 32.64 19.41 33.55 19.45 34.00 C 22.86 30.85 26.77 27.76 28.36 23.22 C 29.56 20.09 28.05 16.18 24.95 14.82 C 22.57 13.85 20.29 15.49 18.40 16.75 C 16.90 15.48 15.17 13.94 13.03 14.42 C 9.56 15.25 7.39 19.23 8.47 22.62 Z" />
<path fill="#ffffff" opacity="1.00" d=" M 25.72 37.12 C 26.37 37.43 27.01 37.74 27.66 38.05 C 27.12 38.76 26.58 39.46 26.04 40.16 C 29.70 43.84 33.35 47.53 36.98 51.24 C 35.99 54.82 40.96 56.19 42.12 59.22 C 39.83 57.81 38.26 55.46 35.92 54.14 C 34.69 54.39 33.67 54.06 32.87 53.13 C 29.60 49.86 26.39 46.54 23.12 43.27 C 22.24 43.89 21.34 44.63 20.22 44.22 C 20.30 42.74 20.34 41.26 20.42 39.78 C 22.10 39.36 23.16 37.83 24.57 36.93 C 24.75 39.75 20.29 40.26 21.51 43.05 C 22.91 41.14 25.82 39.87 25.72 37.12 Z" />
</g>
</svg>
