<?xml version="1.0" encoding="UTF-8" ?>
<!DOCTYPE svg PUBLIC "-//W3C//DTD SVG 1.1//EN" "http://www.w3.org/Graphics/SVG/1.1/DTD/svg11.dtd">
<svg width="64pt" height="64pt" viewBox="0 0 64 64" version="1.1" xmlns="http://www.w3.org/2000/svg">
<g id="#f7fbf7fe">
<path fill="#f7fbf7" opacity="1.00" d=" M 30.40 10.02 C 32.80 10.02 35.20 10.02 37.60 10.02 C 37.58 10.49 37.54 11.43 37.53 11.90 C 39.36 12.15 41.19 12.40 43.02 12.63 C 44.48 9.47 47.87 11.74 50.01 12.76 C 49.84 18.89 50.12 25.03 49.88 31.15 C 49.61 35.56 46.82 39.16 43.60 41.93 C 43.61 41.42 43.64 40.41 43.65 39.90 C 45.90 37.53 48.02 34.67 48.25 31.29 C 48.42 25.37 48.25 19.44 48.31 13.52 C 47.20 13.18 46.08 12.85 44.96 12.55 L 44.99 14.51 C 42.04 14.12 39.08 13.74 36.09 13.65 C 36.04 13.16 35.94 12.18 35.88 11.68 C 34.63 11.70 33.37 11.70 32.11 11.68 C 32.06 12.18 31.96 13.16 31.91 13.65 C 28.92 13.74 25.96 14.12 23.01 14.51 L 23.05 12.54 C 21.92 12.85 20.80 13.18 19.69 13.52 C 19.79 19.71 19.48 25.92 19.83 32.10 C 20.15 36.10 24.18 38.30 24.81 42.14 C 21.31 39.47 18.42 35.69 18.12 31.15 C 17.88 25.02 18.15 18.89 17.99 12.76 C 20.13 11.74 23.52 9.48 24.97 12.63 C 26.81 12.40 28.64 12.15 30.48 11.90 C 30.46 11.43 30.42 10.49 30.40 10.02 Z" />
<path fill="#f7fbf7" opacity="1.00" d=" M 30.52 17.54 C 33.02 14.58 38.21 16.30 38.84 20.00 C 39.55 22.07 37.86 23.87 36.79 25.44 C 39.55 26.54 42.25 27.77 44.93 29.06 C 44.20 31.43 43.57 33.83 42.89 36.22 C 39.79 35.85 37.00 34.38 34.00 33.64 C 31.00 34.38 28.21 35.84 25.10 36.22 C 24.45 33.82 23.78 31.44 23.08 29.06 C 25.75 27.77 28.45 26.54 31.21 25.44 C 29.11 23.38 28.02 19.74 30.52 17.54 M 31.41 18.32 C 31.01 19.21 30.60 20.10 30.20 21.00 C 30.59 21.88 30.98 22.76 31.37 23.64 C 32.03 23.93 33.35 24.51 34.00 24.79 C 34.66 24.50 35.98 23.92 36.64 23.62 C 36.93 22.96 37.51 21.65 37.80 20.99 C 37.50 20.33 36.90 18.99 36.60 18.33 C 35.95 18.04 34.65 17.47 34.00 17.19 C 33.35 17.47 32.06 18.03 31.41 18.32 Z" />
<path fill="#f7fbf7" opacity="1.00" d=" M 26.00 38.07 C 28.67 37.22 31.24 35.92 34.01 35.42 C 36.78 35.93 39.34 37.21 42.00 38.07 C 41.99 39.44 41.99 40.81 42.01 42.18 C 39.33 43.41 36.65 44.65 34.00 45.92 C 31.34 44.64 28.67 43.41 25.99 42.18 C 26.01 40.81 26.01 39.44 26.00 38.07 M 27.76 38.49 C 29.87 39.26 31.95 40.10 34.04 40.91 C 35.94 40.07 37.87 39.27 39.77 38.42 C 37.88 37.72 35.97 37.05 34.00 36.60 C 31.86 37.02 29.83 37.83 27.76 38.49 Z" />
<path fill="#f7fbf7" opacity="1.00" d=" M 28.60 49.11 L 30.28 49.21 C 30.29 50.33 30.28 51.46 30.27 52.59 C 31.12 52.58 32.81 52.57 33.65 52.57 L 33.76 54.30 C 32.94 54.29 31.28 54.28 30.46 54.28 C 30.67 56.01 30.10 57.28 28.74 58.09 C 28.67 57.15 28.53 55.28 28.45 54.34 C 27.66 54.32 26.06 54.29 25.26 54.27 L 25.31 52.58 C 26.11 52.57 27.73 52.56 28.53 52.55 C 28.56 51.40 28.58 50.26 28.60 49.11 Z" />
<path fill="#f7fbf7" opacity="1.00" d=" M 37.58 49.12 L 39.30 49.22 C 39.29 50.06 39.28 51.75 39.27 52.59 C 40.11 52.58 41.77 52.56 42.61 52.56 L 42.67 54.28 C 41.84 54.29 40.18 54.31 39.34 54.32 C 39.32 55.12 39.27 56.71 39.25 57.51 L 37.57 57.64 C 37.55 56.81 37.53 55.16 37.51 54.33 C 36.72 54.28 35.13 54.20 34.33 54.15 C 35.00 52.90 36.08 52.29 37.56 52.32 C 37.56 51.52 37.58 49.92 37.58 49.12 Z" />
</g>
</svg>
