<?xml version="1.0" encoding="UTF-8" ?>
<!DOCTYPE svg PUBLIC "-//W3C//DTD SVG 1.1//EN" "http://www.w3.org/Graphics/SVG/1.1/DTD/svg11.dtd">
<svg width="64pt" height="64pt" viewBox="0 0 64 64" version="1.1" xmlns="http://www.w3.org/2000/svg">
<g id="#ffffffff">
<path fill="#ffffff" opacity="1.00" d=" M 32.00 5.65 C 40.29 5.91 48.42 10.09 53.11 16.98 C 58.58 24.54 59.54 35.08 55.36 43.45 C 50.31 54.78 36.48 61.15 24.58 57.63 C 20.30 56.56 16.53 54.16 13.18 51.34 C 14.91 49.45 16.72 47.65 18.49 45.80 C 22.80 49.36 28.32 51.70 34.00 50.93 C 43.88 50.25 51.93 40.69 50.99 30.84 C 50.75 21.00 41.77 12.74 32.00 12.89 C 32.00 10.47 32.00 8.06 32.00 5.65 Z" />
<path fill="#ffffff" opacity="1.00" d=" M 20.15 23.08 C 23.77 21.10 28.32 21.75 31.58 24.15 C 35.07 21.78 39.85 21.01 43.57 23.31 C 46.40 25.97 47.09 30.51 45.09 33.87 C 42.03 39.25 36.91 43.23 31.54 46.14 C 26.25 42.39 20.25 38.60 17.72 32.34 C 16.25 29.14 17.50 25.23 20.15 23.08 Z" />
</g>
<g id="#38383839">
<path fill="#383838" opacity="0.22" d=" M 24.25 10.11 C 26.16 9.69 28.07 9.28 29.99 8.89 C 29.99 10.27 29.99 11.65 29.99 13.03 C 28.47 13.29 26.96 13.54 25.45 13.80 C 25.05 12.57 24.65 11.34 24.25 10.11 Z" />
<path fill="#383838" opacity="0.22" d=" M 16.74 14.40 C 18.55 13.17 20.42 12.05 22.35 11.04 C 22.80 12.26 23.24 13.48 23.69 14.71 C 22.11 15.71 20.54 16.72 18.97 17.73 C 18.24 16.61 17.49 15.51 16.74 14.40 Z" />
<path fill="#383838" opacity="0.22" d=" M 11.04 22.08 C 12.27 19.98 13.64 17.97 15.14 16.05 C 16.03 17.08 16.93 18.12 17.83 19.16 C 16.70 20.71 15.56 22.24 14.40 23.76 C 13.28 23.20 12.16 22.64 11.04 22.08 Z" />
<path fill="#383838" opacity="0.22" d=" M 10.34 23.66 C 11.47 24.31 12.61 24.96 13.74 25.61 C 13.46 27.41 13.18 29.21 12.89 31.01 C 11.53 31.00 10.18 31.00 8.82 30.99 C 9.17 28.51 9.68 26.07 10.34 23.66 Z" />
<path fill="#383838" opacity="0.22" d=" M 8.84 33.03 C 10.19 33.01 11.55 33.00 12.90 32.99 C 13.17 34.90 13.43 36.81 13.70 38.73 C 12.51 39.11 11.32 39.50 10.13 39.89 C 9.61 37.62 9.17 35.33 8.84 33.03 Z" />
<path fill="#383838" opacity="0.22" d=" M 11.02 41.86 C 12.26 41.33 13.51 40.81 14.77 40.30 C 15.58 41.70 16.35 43.12 17.07 44.57 C 16.13 45.39 15.19 46.22 14.25 47.05 C 13.15 45.33 12.07 43.60 11.02 41.86 Z" />
</g>
</svg>
