<?xml version="1.0" encoding="UTF-8" ?>
<!DOCTYPE svg PUBLIC "-//W3C//DTD SVG 1.1//EN" "http://www.w3.org/Graphics/SVG/1.1/DTD/svg11.dtd">
<svg width="65pt" height="65pt" viewBox="0 0 65 65" version="1.1" xmlns="http://www.w3.org/2000/svg">
<g id="#ffffffff">
<path fill="#ffffff" opacity="1.00" d=" M 26.43 14.46 C 30.95 9.15 39.08 7.45 45.35 10.50 C 49.74 12.49 52.80 16.59 54.33 21.07 C 58.33 22.19 61.85 25.56 61.97 29.90 C 62.40 34.15 59.44 37.84 55.75 39.55 C 56.06 43.55 54.53 47.83 51.01 50.01 C 48.11 52.17 44.29 52.12 40.96 51.13 C 38.90 52.09 36.67 52.09 34.57 51.24 C 30.82 52.37 26.89 51.94 23.04 52.00 C 17.33 51.94 11.62 52.11 5.92 51.94 C 3.09 52.08 1.44 48.23 3.43 46.24 C 4.50 44.72 6.40 45.27 7.91 45.47 C 6.51 39.57 11.69 33.66 17.75 34.50 C 17.91 31.49 19.75 29.08 22.38 27.73 C 21.89 22.99 23.15 18.01 26.43 14.46 M 25.69 25.11 C 26.14 25.65 27.03 26.74 27.48 27.28 C 29.81 26.21 32.14 25.14 34.48 24.10 C 34.89 24.45 35.71 25.17 36.12 25.52 C 33.68 28.35 29.29 29.99 28.32 33.75 C 23.85 37.83 19.35 41.87 14.86 45.93 C 15.98 46.64 17.11 47.35 18.24 48.06 C 23.27 44.39 28.37 40.83 33.34 37.09 C 34.51 37.69 35.68 38.30 36.85 38.91 C 34.58 40.55 32.31 42.18 30.03 43.81 C 31.11 44.60 32.19 45.38 33.26 46.17 C 36.90 43.71 40.43 41.09 44.01 38.56 C 42.56 37.38 41.10 36.20 39.65 35.02 C 41.56 33.78 43.46 32.55 45.37 31.31 C 47.07 32.22 48.78 33.14 50.48 34.05 C 52.83 31.87 55.21 29.71 57.56 27.53 C 57.17 26.79 56.41 25.31 56.03 24.57 C 54.17 26.26 52.39 28.06 50.41 29.61 C 49.81 29.21 48.62 28.41 48.03 28.01 C 48.64 26.84 49.19 25.64 49.68 24.42 C 50.38 24.34 51.77 24.18 52.47 24.10 C 49.90 22.57 47.29 20.67 44.28 20.23 C 43.64 21.29 43.19 22.45 42.70 23.58 C 40.04 22.15 37.20 21.11 34.37 20.08 C 31.51 21.80 28.59 23.45 25.69 25.11 Z" />
<path fill="#ffffff" opacity="1.00" d=" M 43.93 22.72 C 45.55 23.09 47.18 23.49 48.79 23.90 C 49.10 27.21 44.17 28.66 43.56 25.03 C 43.65 24.45 43.84 23.30 43.93 22.72 Z" />
</g>
</svg>
