<?xml version="1.0" encoding="UTF-8" ?>
<!DOCTYPE svg PUBLIC "-//W3C//DTD SVG 1.1//EN" "http://www.w3.org/Graphics/SVG/1.1/DTD/svg11.dtd">
<svg width="77pt" height="110pt" viewBox="0 0 77 110" version="1.1" xmlns="http://www.w3.org/2000/svg">
<g id="#000000ff">
</g>
<g id="#edda26ff">
<path fill="#edda26" opacity="1.00" d=" M 18.67 25.42 C 19.37 24.45 20.08 23.49 20.78 22.52 C 22.68 24.26 24.38 26.77 27.01 27.32 C 31.59 26.06 36.15 24.29 41.00 24.56 C 46.50 24.15 51.64 26.53 57.06 26.88 C 58.88 25.32 60.69 23.75 62.60 22.31 C 64.58 25.86 63.03 29.84 63.29 33.61 C 63.90 36.33 65.32 38.80 65.92 41.53 C 67.56 48.11 65.54 54.75 64.52 61.25 C 63.54 66.37 67.45 70.87 66.55 75.99 C 65.92 77.79 64.29 79.05 62.82 80.18 C 59.64 81.28 56.12 80.05 52.87 80.88 C 50.71 83.19 51.62 86.71 50.61 89.51 C 50.42 91.82 47.91 92.63 46.10 93.42 C 41.74 95.48 36.22 94.13 32.89 90.80 C 32.23 87.37 32.16 83.74 30.30 80.66 C 27.18 80.61 24.06 80.83 20.95 80.55 C 18.94 79.75 17.30 77.87 16.48 75.89 C 15.85 70.78 19.61 66.20 18.46 61.03 C 17.15 53.32 14.76 45.06 18.29 37.56 C 20.47 33.79 19.57 29.42 18.67 25.42 M 23.26 60.90 C 22.85 64.24 25.30 66.95 28.02 68.48 C 31.90 68.97 36.37 68.53 38.85 65.09 C 36.75 59.67 30.24 57.80 24.97 57.48 C 22.92 57.01 23.31 59.69 23.26 60.90 M 44.10 65.12 C 47.49 68.89 54.53 70.36 57.94 65.90 C 60.39 63.72 59.56 60.23 59.59 57.35 C 53.79 57.43 46.51 59.15 44.10 65.12 M 39.62 72.37 C 38.74 73.71 37.86 75.05 37.01 76.41 C 40.04 76.48 43.08 76.51 46.11 76.59 C 45.20 75.22 44.26 73.86 43.34 72.50 C 42.10 72.44 40.86 72.40 39.62 72.37 Z" />
</g>
</svg>
