<?xml version="1.0" encoding="UTF-8" ?>
<!DOCTYPE svg PUBLIC "-//W3C//DTD SVG 1.1//EN" "http://www.w3.org/Graphics/SVG/1.1/DTD/svg11.dtd">
<svg width="87pt" height="112pt" viewBox="0 0 87 112" version="1.1" xmlns="http://www.w3.org/2000/svg">
<g id="#000000ff">
</g>
<g id="#edda26ff">
<path fill="#edda26" opacity="1.00" d=" M 26.36 30.70 C 29.31 23.86 36.78 19.88 43.97 19.45 C 50.05 19.36 56.50 18.66 62.15 21.45 C 69.45 24.35 74.03 32.25 73.61 39.99 C 74.01 45.80 72.26 51.41 71.61 57.12 C 71.81 61.97 75.44 66.97 73.04 71.74 C 70.25 76.07 64.68 74.42 60.38 74.58 C 58.02 77.15 58.73 80.70 58.22 83.86 C 54.82 88.78 47.64 89.64 42.70 86.54 C 38.15 84.24 41.39 77.50 37.40 74.77 C 33.21 74.25 27.69 76.21 25.07 71.69 C 22.35 66.29 27.74 60.82 26.25 55.21 C 24.56 47.23 22.81 38.44 26.36 30.70 M 30.41 52.86 C 29.58 57.42 32.86 63.21 37.98 62.65 C 40.85 62.89 43.70 62.29 45.88 60.30 C 45.79 59.45 45.61 57.74 45.52 56.89 C 42.67 54.54 39.38 52.71 35.75 51.91 C 33.90 51.58 31.46 50.64 30.41 52.86 M 59.06 52.86 C 55.92 54.20 51.84 56.03 52.18 60.11 C 55.07 62.96 59.24 62.87 63.00 62.46 C 67.11 60.42 68.17 55.62 67.53 51.42 C 64.65 51.45 61.72 51.66 59.06 52.86 M 49.16 65.74 C 46.51 66.51 45.25 69.19 44.03 71.42 C 47.35 71.24 50.67 71.24 53.99 71.46 C 52.89 69.29 51.87 66.20 49.16 65.74 Z" />
</g>
</svg>
