<?xml version="1.0" encoding="UTF-8" ?>
<!DOCTYPE svg PUBLIC "-//W3C//DTD SVG 1.1//EN" "http://www.w3.org/Graphics/SVG/1.1/DTD/svg11.dtd">
<svg width="64pt" height="64pt" viewBox="0 0 64 64" version="1.1" xmlns="http://www.w3.org/2000/svg">
<g id="#f8fcf8ff">
<path fill="#f8fcf8" opacity="1.00" d=" M 27.27 9.21 C 27.44 8.82 27.77 8.02 27.94 7.62 C 30.62 7.67 33.32 7.42 35.99 7.79 C 36.20 8.15 36.62 8.87 36.84 9.23 C 33.65 9.23 30.46 9.15 27.27 9.21 Z" />
<path fill="#f8fcf8" opacity="1.00" d=" M 26.69 10.20 C 30.50 10.30 34.31 10.25 38.13 10.22 C 38.05 10.89 37.88 12.23 37.80 12.90 C 32.30 14.05 25.62 10.92 21.09 15.34 L 20.50 16.81 L 19.00 17.15 C 24.05 20.23 29.57 15.36 34.84 17.13 C 40.28 18.65 46.01 17.75 51.52 18.85 C 51.29 31.22 52.03 43.71 51.15 56.00 C 43.50 57.28 35.68 56.92 27.95 56.97 C 23.06 56.83 18.08 57.02 13.27 56.00 L 12.69 54.27 C 13.49 54.31 15.10 54.38 15.90 54.41 C 15.90 54.18 15.92 53.71 15.92 53.47 C 15.19 53.51 13.73 53.57 13.01 53.60 C 13.00 42.81 12.99 32.02 13.02 21.23 C 13.73 21.28 15.14 21.40 15.85 21.45 C 15.88 21.22 15.94 20.75 15.97 20.51 C 15.13 20.51 13.45 20.52 12.61 20.53 C 13.09 17.13 17.46 18.79 19.67 18.36 C 19.07 17.31 17.00 16.17 18.62 15.04 C 21.34 13.48 24.34 12.34 26.69 10.20 M 23.29 28.35 C 20.72 29.72 19.60 33.19 20.79 35.84 C 22.89 41.09 27.87 44.31 32.10 47.74 C 36.58 44.57 41.58 41.25 43.68 35.93 C 44.97 32.64 42.66 29.55 39.96 27.93 C 37.21 27.88 34.38 27.92 32.03 29.56 C 29.41 28.09 26.20 27.40 23.29 28.35 Z" />
<path fill="#f8fcf8" opacity="1.00" d=" M 28.87 13.68 C 31.21 14.08 35.77 12.54 35.46 16.45 C 33.24 16.36 31.02 16.31 28.80 16.40 C 28.82 15.72 28.85 14.36 28.87 13.68 Z" />
</g>
</svg>
